<?xml version="1.0" encoding="utf-8"?>
<!-- Generator: Adobe Illustrator 27.3.1, SVG Export Plug-In . SVG Version: 6.00 Build 0)  -->
<svg version="1.1" id="Layer_1" xmlns="http://www.w3.org/2000/svg" xmlns:xlink="http://www.w3.org/1999/xlink" x="0px" y="0px"
	 viewBox="0 0 500 500" style="enable-background:new 0 0 500 500;" xml:space="preserve">
<style type="text/css">
	.st0{fill:#FFFFFF;}
</style>
<g>
	<path class="st0" d="M366.52,453.44c-3.37,1.9-6.74,3.77-10.18,5.52c-15.9,8.06-32.63,14.33-49.71,18.62
		c-3.31,0.81-6.69,1.57-9.99,2.25C193.77,500.72,88.7,449.9,41.08,356.3c-44.83-88.14-29.4-195.22,38.27-267.13
		c1.39,1.05,2.92,1.94,4.66,2.51c1.64,0.53,3.3,0.79,4.94,0.79c6.75,0,13.05-4.31,15.25-11.07c2.73-8.4-1.87-17.46-10.28-20.2
		c-8.38-2.73-17.46,1.88-20.2,10.28c-1.66,5.1-0.58,10.41,2.37,14.44C7.02,159.23-8.75,268.47,36.99,358.38
		c41.26,81.12,124.83,130.71,213.39,130.7c15.63,0,31.45-1.55,47.19-4.75c3.37-0.7,6.8-1.46,10.17-2.29
		c17.42-4.39,34.47-10.77,50.68-18.99c3.51-1.78,6.93-3.68,10.37-5.62c1.1-0.62,1.5-2.03,0.87-3.13
		C369.03,453.2,367.62,452.82,366.52,453.44z M78.1,72.9c1.95-6,8.45-9.28,14.4-7.33c5.99,1.95,9.28,8.41,7.33,14.4
		c-1.95,5.99-8.42,9.28-14.4,7.33C79.44,85.36,76.15,78.89,78.1,72.9z M463.1,141.59C414.51,46.11,307.36-5.65,202.59,15.67
		c-3.11,0.58-6.38,1.3-10.29,2.29c-17.52,4.4-34.56,10.78-50.62,18.96c-3.52,1.79-7.04,3.7-10.39,5.63
		c-1.1,0.63-1.48,2.04-0.85,3.14c0.63,1.1,2.04,1.47,3.14,0.85c3.29-1.89,6.73-3.76,10.18-5.52c15.76-8.02,32.47-14.27,49.66-18.6
		c3.82-0.96,7-1.66,10.05-2.23C306.25-0.74,411.34,50.03,459.01,143.68c44.31,87.11,29.57,193.45-36.55,265.22
		c-1.33-0.97-2.78-1.81-4.43-2.35c-8.41-2.74-17.46,1.87-20.2,10.27c-2.73,8.41,1.87,17.47,10.27,20.21
		c1.63,0.53,3.31,0.79,4.98,0.79c2.49,0,4.97-0.59,7.25-1.75c3.82-1.94,6.65-5.25,7.97-9.32c1.69-5.19,0.56-10.63-2.52-14.68
		C493.25,338.9,508.29,230.44,463.1,141.59z M423.92,425.33c-0.94,2.9-2.96,5.26-5.68,6.65c-2.71,1.37-5.81,1.63-8.72,0.68
		c-5.99-1.95-9.28-8.41-7.33-14.4c1.95-6,8.43-9.28,14.4-7.33C422.59,412.87,425.87,419.34,423.92,425.33z M342.04,430.81
		c-74.25,37.77-165.42,25.78-227.41-29.72c0.96-1.32,1.74-2.8,2.27-4.44c2.74-8.43-1.89-17.53-10.32-20.28
		c-4.09-1.33-8.45-0.99-12.28,0.96c-3.83,1.95-6.68,5.27-8.01,9.36c-2.75,8.44,1.88,17.53,10.32,20.28
		c1.65,0.53,3.32,0.79,4.97,0.79c3.59,0,7.03-1.24,9.83-3.39c38.75,34.77,88.66,52.9,138.99,52.9c32.01,0,64.18-7.33,93.72-22.36
		c82.87-42.17,127.8-135.16,109.28-226.09c-0.56-2.99-1.23-5.96-1.98-8.94c-3.83-15.21-9.36-30-16.46-43.93
		c-0.57-1.14-1.98-1.57-3.09-1.01c-1.13,0.58-1.59,1.96-1.01,3.09c6.93,13.63,12.35,28.09,16.09,42.97c0.73,2.89,1.39,5.76,1.93,8.7
		C467.01,298.64,423.07,389.56,342.04,430.81z M98.05,402.59c-6.03-1.96-9.33-8.46-7.37-14.49c0.95-2.92,2.98-5.29,5.72-6.68
		c1.64-0.84,3.41-1.26,5.2-1.26c1.19,0,2.4,0.19,3.57,0.57c6.03,1.97,9.33,8.46,7.37,14.49
		C110.57,401.25,104.07,404.54,98.05,402.59z M405.25,94.9c-5.16-1.68-10.55-0.58-14.6,2.44C327.11,38.91,233,25.9,155.98,65.08
		C73.14,107.21,28.19,200.21,46.66,291.23c0.61,2.92,1.27,5.9,1.99,8.83c3.81,15.12,9.35,29.91,16.47,43.97
		c0.4,0.8,1.22,1.26,2.05,1.26c0.35,0,0.7-0.08,1.04-0.25c1.14-0.57,1.59-1.96,1.01-3.09c-6.97-13.76-12.39-28.23-16.12-43.01
		c-0.7-2.87-1.36-5.79-1.95-8.65c-18.06-89,25.9-179.93,106.9-221.13c75.26-38.29,167.22-25.61,229.36,31.45
		c-1.02,1.37-1.9,2.88-2.46,4.59c-2.74,8.43,1.88,17.53,10.32,20.28c1.64,0.53,3.32,0.8,5,0.8c2.5,0,4.98-0.59,7.28-1.76
		c3.83-1.95,6.67-5.27,8-9.36s0.99-8.45-0.96-12.28C412.66,99.07,409.34,96.23,405.25,94.9z M411.19,113.76
		c-1.96,6.02-8.47,9.33-14.48,7.37c-6.03-1.96-9.33-8.46-7.37-14.49c1.58-4.85,6.09-7.93,10.93-7.93c1.18,0,2.37,0.18,3.55,0.57
		c2.91,0.95,5.29,2.98,6.68,5.72C411.9,107.72,412.14,110.84,411.19,113.76z M250.06,209.77c-11.67,0-21.16,9.49-21.16,21.16
		c0,11.67,9.49,21.16,21.16,21.16c11.67,0,21.16-9.49,21.16-21.16C271.22,219.26,261.73,209.77,250.06,209.77z M250.06,247.49
		c-9.13,0-16.56-7.43-16.56-16.56c0-9.13,7.43-16.56,16.56-16.56s16.56,7.43,16.56,16.56C266.62,240.06,259.19,247.49,250.06,247.49
		z M347.45,308.56c6.93,0,12.57-5.64,12.57-12.57c0-6.93-5.64-12.57-12.57-12.57c-6.93,0-12.57,5.64-12.57,12.57
		C334.89,302.92,340.53,308.56,347.45,308.56z M347.45,288.02c4.4,0,7.97,3.57,7.97,7.97s-3.57,7.97-7.97,7.97s-7.97-3.57-7.97-7.97
		S343.06,288.02,347.45,288.02z M281.99,265.65c-1.04-0.73-1.3-2.16-0.57-3.2c0.73-1.05,2.17-1.29,3.2-0.57l25.33,17.66
		c1.04,0.73,1.3,2.16,0.57,3.2c-0.44,0.64-1.16,0.98-1.89,0.98c-0.46,0-0.92-0.13-1.32-0.41L281.99,265.65z M152.66,283.43
		c-6.93,0-12.57,5.64-12.57,12.57c0,6.93,5.64,12.57,12.57,12.57c6.93,0,12.57-5.64,12.57-12.57
		C165.23,289.07,159.59,283.43,152.66,283.43z M152.66,303.96c-4.4,0-7.97-3.57-7.97-7.97s3.57-7.97,7.97-7.97
		c4.4,0,7.97,3.57,7.97,7.97S157.06,303.96,152.66,303.96z M218.7,262.45c0.73,1.04,0.47,2.47-0.57,3.2l-25.33,17.66
		c-0.4,0.28-0.86,0.41-1.32,0.41c-0.72,0-1.44-0.34-1.89-0.98c-0.73-1.04-0.47-2.47,0.57-3.2l25.33-17.66
		C216.54,261.16,217.98,261.41,218.7,262.45z M398.19,268.35c-2.85-15.2-16.28-26.46-31.89-26.46c-6.49,0-12.68,1.88-18,5.46
		c-5.34-3.58-11.54-5.46-18.02-5.46c-11.49,0-21.9,6.03-27.76,15.8l-19.5-13.59c1.41-3.5,2.25-7.28,2.46-11.23
		c0.29,0.13,0.6,0.2,0.93,0.2h12.6c23.96,0,43.46-19.49,43.46-43.45c0-20.45-14.19-38.03-33.98-42.42
		c-3.2-17.85-18.91-31.11-37.21-31.11c-7.64,0-14.94,2.25-21.22,6.51c-6.28-4.27-13.58-6.51-21.22-6.51
		c-18.3,0-34.01,13.26-37.21,31.11c-19.78,4.39-33.98,21.97-33.98,42.42c0,23.96,19.5,43.45,43.46,43.45h12.78
		c0.27,0,0.51-0.07,0.75-0.15c0.22,3.93,1.06,7.69,2.46,11.18l-19.5,13.59c-5.85-9.77-16.25-15.8-27.75-15.8
		c-6.48,0-12.68,1.88-18.02,5.46c-5.34-3.58-11.54-5.46-18.02-5.46c-15.62,0-29.04,11.27-31.87,26.46
		c-16.84,3.85-28.9,18.86-28.9,36.3c0,20.53,16.71,37.23,37.25,37.23h83.09c20.53,0,37.23-16.7,37.23-37.23
		c0-9.45-3.53-18.45-9.94-25.34c-0.87-0.93-2.32-0.98-3.25-0.12c-0.93,0.87-0.98,2.32-0.12,3.25c5.62,6.03,8.71,13.92,8.71,22.2
		c0,18-14.64,32.63-32.63,32.63h-83.09c-18.01,0-32.65-14.64-32.65-32.63c0-15.77,11.24-29.28,26.73-32.11
		c0.98-0.18,1.73-0.97,1.86-1.96c1.85-13.74,13.7-24.1,27.58-24.1c6.05,0,11.8,1.91,16.65,5.53c0.82,0.61,1.94,0.61,2.75,0
		c4.84-3.61,10.59-5.52,16.64-5.52c9.97,0,18.99,5.29,23.97,13.84l-20.85,14.53c-5.28-5.07-12.43-8.21-20.31-8.21
		c-16.19,0-29.35,13.17-29.35,29.35c0,16.19,13.17,29.36,29.35,29.36c16.19,0,29.36-13.17,29.36-29.36c0-6.64-2.24-12.75-5.98-17.68
		l43.07-30.01c6.09,10.81,17.67,18.14,30.95,18.14c13.27,0,24.85-7.33,30.95-18.14l43.07,30.01c-3.73,4.92-5.98,11.03-5.98,17.68
		c0,16.19,13.17,29.36,29.36,29.36s29.35-13.17,29.35-29.36c0-16.19-13.17-29.35-29.35-29.35c-7.88,0-15.03,3.14-20.31,8.21
		l-20.86-14.53c5-8.54,14.03-13.83,23.99-13.83c6.05,0,11.8,1.91,16.64,5.52c0.81,0.61,1.94,0.61,2.75,0
		c4.82-3.61,10.57-5.52,16.62-5.52c13.87,0,25.73,10.36,27.6,24.11c0.13,0.98,0.88,1.77,1.86,1.95
		c15.48,2.83,26.72,16.34,26.72,32.11c0,18-14.64,32.63-32.63,32.63h-83.11c-17.99,0-32.63-14.64-32.63-32.63
		c0-8.28,3.09-16.17,8.71-22.2c0.86-0.93,0.81-2.38-0.12-3.25c-0.93-0.86-2.38-0.81-3.25,0.12c-6.41,6.89-9.94,15.89-9.94,25.34
		c0,20.53,16.7,37.23,37.23,37.23h83.11c20.53,0,37.23-16.7,37.23-37.23C427.07,287.21,415.02,272.2,398.19,268.35z M152.66,320.75
		c-13.65,0-24.75-11.11-24.75-24.76c0-13.65,11.1-24.75,24.75-24.75c13.65,0,24.76,11.1,24.76,24.75
		C177.42,309.64,166.31,320.75,152.66,320.75z M201.11,228.48c-21.43,0-38.86-17.43-38.86-38.86c0-18.78,13.38-34.85,31.82-38.22
		c0.98-0.18,1.73-0.97,1.86-1.96c2.2-16.39,16.35-28.75,32.9-28.75c7.21,0,14.07,2.28,19.85,6.58c0.82,0.61,1.93,0.61,2.75,0
		c5.78-4.3,12.64-6.58,19.85-6.58c16.56,0,30.7,12.36,32.9,28.75c0.13,0.99,0.88,1.78,1.86,1.96c18.44,3.37,31.82,19.44,31.82,38.22
		c0,21.42-17.43,38.86-38.86,38.86h-12.6c-0.34,0-0.65,0.08-0.94,0.21c-1.17-18.54-16.57-33.27-35.4-33.27
		c-18.81,0-34.2,14.71-35.4,33.22c-0.24-0.09-0.5-0.15-0.77-0.15H201.11z M250.06,261.85c-17.05,0-30.92-13.87-30.92-30.92
		s13.87-30.92,30.92-30.92s30.92,13.87,30.92,30.92S267.11,261.85,250.06,261.85z M347.45,271.24c13.65,0,24.75,11.1,24.75,24.75
		c0,13.65-11.1,24.76-24.75,24.76s-24.76-11.11-24.76-24.76C322.7,282.34,333.8,271.24,347.45,271.24z"/>
</g>
</svg>
