<?xml version="1.0" encoding="utf-8"?>
<!-- Generator: Adobe Illustrator 27.3.1, SVG Export Plug-In . SVG Version: 6.00 Build 0)  -->
<svg version="1.1" id="Layer_1" xmlns="http://www.w3.org/2000/svg" xmlns:xlink="http://www.w3.org/1999/xlink" x="0px" y="0px"
	 viewBox="0 0 500 500" style="enable-background:new 0 0 500 500;" xml:space="preserve">
<style type="text/css">
	.st0{fill:#FFFFFF;}
</style>
<g>
	<g>
		<path class="st0" d="M231.05,108.12c3.79,0,6.88,3.08,6.88,6.88v55.05c0,9.98,5.94,18.93,15.13,22.8
			c3.04,1.29,6.26,1.94,9.57,1.94c5.62,0,11.14-1.94,15.56-5.48c1.96-1.58,4-2.38,6.06-2.38c7.8,0,16.5,12.63,16.5,30.75
			c0,18.14-8.69,30.78-16.5,30.78c-2.06,0-4.1-0.8-6.07-2.39c-4.4-3.54-9.93-5.49-15.56-5.49c-3.31,0-6.52,0.65-9.55,1.93
			c-9.2,3.87-15.14,12.82-15.14,22.8v29.8c0,3.79-3.08,6.88-6.88,6.88H117.34h-5.01l-0.72,4.96c-2.14,14.85-9.59,28.49-20.95,38.42
			c-10.13,8.84-22.78,14.18-36.09,15.32c12.96-13.71,20.39-32.02,20.39-51.29c0-0.37-0.02-0.74-0.03-1.1
			c-0.01-0.17-0.02-0.35-0.02-0.52v-5.78h-5.78h-25.7c-13.56,0-24.6-11.04-24.6-24.6V132.72c0-13.56,11.04-24.6,24.6-24.6H231.05
			 M187.12,225.1c11.92,0,21.61-9.69,21.61-21.61c0-11.9-9.69-21.58-21.61-21.58c-11.92,0-21.61,9.68-21.61,21.58
			C165.51,215.4,175.2,225.1,187.12,225.1 M131.39,225.1c11.9,0,21.58-9.69,21.58-21.61c0-11.9-9.68-21.58-21.58-21.58
			c-11.92,0-21.61,9.68-21.61,21.58C109.78,215.4,119.47,225.1,131.39,225.1 M75.63,225.1c11.92,0,21.61-9.69,21.61-21.61
			c0-11.9-9.69-21.58-21.61-21.58c-11.9,0-21.58,9.68-21.58,21.58C54.05,215.4,63.73,225.1,75.63,225.1 M231.05,102.33H43.43
			c-16.79,0-30.38,13.6-30.38,30.38v144.65c0,16.76,13.6,30.38,30.38,30.38h25.7c0,0.53,0.05,1.06,0.05,1.62
			c0,23.47-11.72,44.21-29.65,56.62c3.17,0.46,6.38,0.68,9.67,0.68c34.66,0,63.33-25.62,68.14-58.92h113.71
			c6.99,0,12.66-5.67,12.66-12.66v-29.8c0-7.62,4.56-14.51,11.6-17.47c2.35-0.99,4.84-1.48,7.31-1.48c4.26,0,8.49,1.44,11.93,4.22
			c2.91,2.35,6.23,3.67,9.7,3.67c12.31,0,22.28-16.36,22.28-36.56c0-20.18-9.98-36.54-22.28-36.54c-3.47,0-6.79,1.32-9.7,3.67
			c-3.44,2.75-7.66,4.19-11.92,4.19c-2.48,0-4.96-0.49-7.32-1.48c-7.04-2.96-11.6-9.85-11.6-17.47v-55.05
			C243.71,108.01,238.04,102.33,231.05,102.33L231.05,102.33z M187.12,219.31c-8.74,0-15.83-7.09-15.83-15.82
			c0-8.74,7.09-15.8,15.83-15.8c8.74,0,15.83,7.06,15.83,15.8C202.94,212.22,195.85,219.31,187.12,219.31L187.12,219.31z
			 M131.39,219.31c-8.74,0-15.83-7.09-15.83-15.82c0-8.74,7.09-15.8,15.83-15.8c8.74,0,15.8,7.06,15.8,15.8
			C147.19,212.22,140.12,219.31,131.39,219.31L131.39,219.31z M75.63,219.31c-8.74,0-15.8-7.09-15.8-15.82
			c0-8.74,7.06-15.8,15.8-15.8c8.74,0,15.83,7.06,15.83,15.8C91.46,212.22,84.37,219.31,75.63,219.31L75.63,219.31z"/>
	</g>
	<g>
		<path class="st0" d="M456.57,136c13.56,0,24.6,11.04,24.6,24.6V307.4c0,13.56-11.04,24.6-24.6,24.6H440.6h-5.62l-0.16,5.61
			c-0.01,0.27-0.02,0.54-0.03,0.81c-0.02,0.62-0.05,1.26-0.05,1.95c0,19.27,7.43,37.57,20.39,51.29
			c-29.21-2.49-53.34-25.14-57.18-54.62l-0.66-5.04h-5.08H266.75c-3.79,0-6.88-3.08-6.88-6.88v-61.01c0.29-0.72,0.87-1.3,1.61-1.62
			c0.35-0.15,0.7-0.22,1.1-0.22c0.17,0,0.34,0.01,0.53,0.04l0.03,0l0.03,0c0.26,0.03,0.86,0.21,1.92,1.04
			c5.73,4.44,12.36,6.78,19.16,6.78c10.74,0,20.61-5.69,27.77-16.01c6.72-9.68,10.42-22.63,10.42-36.46
			c0-13.82-3.7-26.76-10.42-36.44c-7.17-10.32-17.03-16.01-27.77-16.01c-6.86,0-13.51,2.36-19.24,6.82c-1.01,0.79-1.61,0.96-1.88,1
			l-0.03,0l-0.03,0c-0.15,0.02-0.31,0.03-0.46,0.03c-0.4,0-0.8-0.08-1.13-0.22c-0.74-0.31-1.32-0.91-1.61-1.63v-28.36
			c0-3.79,3.08-6.88,6.88-6.88H456.57 M378.81,186.42c-2.2-1.56-4.81-2.4-7.56-2.4c-3.52,0-6.82,1.38-9.28,3.86
			c-2.48,2.48-3.84,5.77-3.84,9.27s1.36,6.79,3.84,9.27c7.51,7.51,11.65,17.48,11.65,28.07c0,10.62-4.13,20.59-11.61,28.05
			c-2.49,2.47-3.87,5.77-3.88,9.28c-0.01,3.5,1.35,6.8,3.82,9.28c2.42,2.46,5.81,3.87,9.3,3.87c2.78,0,5.43-0.86,7.63-2.44
			c-1.59,2.21-2.45,4.86-2.45,7.63c0,3.5,1.36,6.79,3.84,9.27c2.48,2.48,5.78,3.85,9.28,3.85c3.5,0,6.8-1.37,9.28-3.85
			c17.34-17.34,26.89-40.4,26.89-64.93c0-24.47-9.55-47.52-26.89-64.88c-2.48-2.48-5.77-3.84-9.28-3.84c-3.51,0-6.8,1.36-9.28,3.84
			C375.7,174.17,375.21,181.3,378.81,186.42 M351.95,265.66c3.5,0,6.8-1.37,9.28-3.85c7.3-7.3,11.32-17,11.32-27.33
			c0-10.31-4.02-20.01-11.32-27.31c-2.48-2.48-5.77-3.84-9.28-3.84c-3.51,0-6.8,1.36-9.28,3.84c-5.1,5.1-5.1,13.41,0.02,18.58
			c2.34,2.33,3.63,5.43,3.63,8.73c0,3.32-1.29,6.43-3.67,8.79c-5.09,5.13-5.08,13.45,0.02,18.54
			C345.15,264.29,348.45,265.66,351.95,265.66 M456.57,130.21H266.75c-6.99,0-12.66,5.67-12.66,12.66v29.17
			c0.61,2.73,2.51,5.04,5.14,6.15c1.08,0.45,2.22,0.67,3.38,0.67c0.42,0,0.85-0.03,1.27-0.09c1.72-0.23,3.29-1.09,4.68-2.18
			c4.71-3.67,10.15-5.6,15.67-5.6c18.18,0,32.41,20.51,32.41,46.66c0,26.18-14.23,46.69-32.41,46.69c-5.49,0-10.91-1.92-15.62-5.57
			c-1.39-1.09-2.96-1.98-4.71-2.2c-0.45-0.06-0.89-0.09-1.33-0.09c-1.15,0-2.27,0.22-3.35,0.68c-2.63,1.11-4.53,3.42-5.14,6.13
			v61.83c0,6.99,5.67,12.66,12.66,12.66h125.46c4.41,33.78,33.3,59.88,68.29,59.88c3.29,0,6.51-0.23,9.67-0.68
			c-17.93-12.41-29.65-33.14-29.65-56.62c0-0.86,0.05-1.72,0.08-2.58h15.98c16.79,0,30.38-13.6,30.38-30.38V160.59
			C486.96,143.81,473.36,130.21,456.57,130.21L456.57,130.21z M389.55,297.48c-1.87,0-3.75-0.71-5.19-2.15
			c-2.86-2.86-2.86-7.49,0-10.36c13.47-13.47,20.89-31.4,20.89-50.49c0-19.04-7.42-36.94-20.89-50.41c-2.86-2.86-2.86-7.52,0-10.38
			c1.43-1.43,3.31-2.15,5.19-2.15s3.76,0.72,5.19,2.15c16.23,16.26,25.19,37.83,25.19,60.79c0,22.99-8.96,44.61-25.19,60.84
			C393.3,296.77,391.43,297.48,389.55,297.48L389.55,297.48z M371.25,279.17c-1.87,0-3.77-0.71-5.19-2.15
			c-2.86-2.86-2.86-7.52,0.03-10.38c8.58-8.56,13.32-19.98,13.32-32.16c0-12.13-4.74-23.55-13.34-32.16
			c-2.86-2.86-2.86-7.49,0-10.36c1.43-1.44,3.31-2.16,5.19-2.16c1.88,0,3.76,0.72,5.19,2.16c11.37,11.37,17.62,26.46,17.62,42.51
			c0,16.13-6.25,31.22-17.65,42.56C374.99,278.46,373.12,279.17,371.25,279.17L371.25,279.17z M351.95,259.87
			c-1.87,0-3.75-0.71-5.19-2.15c-2.86-2.86-2.86-7.49,0-10.38c3.44-3.42,5.34-8,5.34-12.86c0-4.84-1.9-9.42-5.34-12.84
			c-2.86-2.89-2.86-7.52,0-10.38c1.43-1.43,3.31-2.15,5.19-2.15s3.76,0.72,5.19,2.15c6.2,6.2,9.62,14.46,9.62,23.22
			c0,8.79-3.42,17.04-9.62,23.24C355.7,259.17,353.82,259.87,351.95,259.87L351.95,259.87z"/>
	</g>
</g>
</svg>
