<?xml version="1.0" encoding="utf-8"?>
<!-- Generator: Adobe Illustrator 27.3.1, SVG Export Plug-In . SVG Version: 6.00 Build 0)  -->
<svg version="1.1" id="Layer_1" xmlns="http://www.w3.org/2000/svg" xmlns:xlink="http://www.w3.org/1999/xlink" x="0px" y="0px"
	 viewBox="0 0 500 500" style="enable-background:new 0 0 500 500;" xml:space="preserve">
<style type="text/css">
	.st0{fill-rule:evenodd;clip-rule:evenodd;fill:none;stroke:#FFFFFF;stroke-width:6.6577;stroke-miterlimit:10;}
</style>
<g>
	<path class="st0" d="M327.89,158.46c24.7,7.57,42.67,30.55,42.67,57.73c0,27.18-17.96,50.16-42.67,57.73V158.46z"/>
	<path class="st0" d="M155.08,320.62l-25.85,88.15c-10.16,34.65-67.23,23.21-55.97-16.05l20.67-72.1H155.08z"/>
	<path class="st0" d="M299.18,73.1c-5.18-3.45-11.27-3.33-16.36,0.32l-77.22,55.35H93.58c-25.4,0-46.19,20.79-46.19,46.19v1.06H34.4
		c-10.12,0-18.4,8.28-18.4,18.4v46.01c0,10.12,8.28,18.4,18.4,18.4h13.03c0.76,24.76,21.22,44.78,46.15,44.78h112.01l77.22,55.35
		c5.09,3.65,11.18,3.77,16.36,0.32c5.31-3.53,8.61-10.1,8.61-17.65V90.75C307.79,83.2,304.49,76.63,299.18,73.1z"/>
	<path class="st0" d="M408.53,205.3h64.59c5.99,0,10.89,4.9,10.89,10.89c0,5.99-4.9,10.89-10.89,10.89h-64.59
		c-5.99,0-10.89-4.9-10.89-10.89C397.64,210.2,402.54,205.3,408.53,205.3"/>
	<path class="st0" d="M388.76,155.08l45.67-45.67c4.23-4.23,11.16-4.23,15.39,0c4.23,4.23,4.23,11.16,0,15.39l-45.67,45.67
		c-4.23,4.23-11.16,4.23-15.39,0C384.52,166.24,384.52,159.32,388.76,155.08"/>
	<path class="st0" d="M388.76,277.3l45.67,45.67c4.23,4.23,11.16,4.23,15.39,0c4.23-4.23,4.23-11.16,0-15.39l-45.67-45.67
		c-4.23-4.23-11.16-4.23-15.39,0C384.52,266.14,384.52,273.07,388.76,277.3"/>
</g>
</svg>
