<?xml version="1.0" encoding="utf-8"?>
<!-- Generator: Adobe Illustrator 27.3.1, SVG Export Plug-In . SVG Version: 6.00 Build 0)  -->
<svg version="1.1" id="Layer_1" xmlns="http://www.w3.org/2000/svg" xmlns:xlink="http://www.w3.org/1999/xlink" x="0px" y="0px"
	 viewBox="0 0 500 500" style="enable-background:new 0 0 500 500;" xml:space="preserve">
<style type="text/css">
	.st0{fill:#FFFFFF;}
</style>
<g>
	<path class="st0" d="M458.03,160.98c-11.37-26.88-27.65-51.03-48.38-71.76c-20.73-20.73-44.88-37.01-71.76-48.38
		c-27.83-11.77-57.4-17.74-87.88-17.74s-60.05,5.97-87.88,17.74c-26.88,11.37-51.03,27.65-71.76,48.38
		c-20.73,20.73-37.01,44.88-48.38,71.76c-11.77,27.83-17.74,57.4-17.74,87.88c0,40.37,10.79,79.99,31.19,114.57l0.38,0.64
		L24.99,476.91l112.52-32.25l0.64,0.37c33.9,19.37,72.58,29.61,111.85,29.61c30.48,0,60.05-5.97,87.88-17.74
		c26.88-11.37,51.03-27.65,71.76-48.38c20.73-20.73,37.01-44.88,48.38-71.76c11.77-27.83,17.74-57.4,17.74-87.88
		C475.77,218.38,469.8,188.82,458.03,160.98z M421.53,321.33c-9.38,22.17-22.8,42.08-39.9,59.17c-17.1,17.1-37.01,30.52-59.17,39.9
		c-22.95,9.71-47.33,14.63-72.46,14.63c-15.78,0-31.46-1.98-46.6-5.88c-21.35-5.5-41.39-14.7-59.56-27.34l-64.23,19.74l17.66-66.21
		c-12.2-17.47-21.23-36.71-26.84-57.19c-4.38-15.98-6.59-32.56-6.59-49.28c0-25.13,4.92-49.51,14.63-72.46
		c9.38-22.17,22.8-42.08,39.9-59.17c17.1-17.1,37.01-30.52,59.17-39.9C200.49,67.62,224.87,62.7,250,62.7s49.51,4.92,72.46,14.63
		c22.17,9.38,42.08,22.8,59.17,39.9c17.1,17.1,30.52,37.01,39.9,59.17c9.71,22.95,14.63,47.33,14.63,72.46
		C436.16,273.99,431.24,298.37,421.53,321.33z"/>
	<g>
		<path class="st0" d="M348.19,343.4c0.48-0.27,0.94-0.56,1.4-0.86L348.19,343.4z"/>
		<path class="st0" d="M362.55,297.6l-44.75-21.96c-5.17-2.54-11.41-1.08-14.92,3.48l-16.26,21.08c-0.46,0.59-0.99,1.12-1.58,1.58
			l-0.65,0.51c-1.41,1.1-3.12,1.73-4.91,1.83c-1.16,0.06-2.31-0.1-3.41-0.48c-9.41-3.29-54.97-21.21-81.04-67.96
			c-0.5-0.89-0.82-1.86-0.97-2.87c-0.26-1.73,0.02-3.5,0.79-5.08l0.27-0.55c0.28-0.57,0.62-1.1,1.02-1.59l10.13-12.5
			c1.61-1.98,2.9-4.2,3.82-6.58l0.59-1.51c1.14-2.93,1.1-6.19-0.12-9.09l-19.37-46.31c-1.85-4.43-6.21-7.28-11.01-7.21l-10.98,0.16
			c-3.58,0.05-7.06,1.18-9.97,3.26c-7.71,5.51-21.63,18.55-24.24,42.16c-1.35,12.19,0.81,24.51,5.93,35.66
			c13.02,28.35,54.61,101.65,145.74,128.16c9.81,2.85,20.09,3.8,30.25,2.78l2.36-0.24c8.72-0.88,17.14-3.72,24.61-8.3l4.29-2.63h0
			c0,0,0,0,0,0l1.4-0.86c9.34-6.11,14.02-17.75,14.38-18.67c0.76-2.03,1.39-4.1,1.89-6.22l0,0c0.96-4.05,1.45-8.19,1.47-12.35l0,0
			C367.34,302.03,365.49,299.04,362.55,297.6z"/>
		<polygon class="st0" points="348.19,343.4 348.19,343.4 348.19,343.4 		"/>
	</g>
</g>
</svg>
