<?xml version="1.0" encoding="utf-8"?>
<!-- Generator: Adobe Illustrator 27.3.1, SVG Export Plug-In . SVG Version: 6.00 Build 0)  -->
<svg version="1.1" id="Layer_1" xmlns="http://www.w3.org/2000/svg" xmlns:xlink="http://www.w3.org/1999/xlink" x="0px" y="0px"
	 viewBox="0 0 500 500" style="enable-background:new 0 0 500 500;" xml:space="preserve">
<style type="text/css">
	.st0{fill:#FFFFFF;}
</style>
<g>
	<path class="st0" d="M64.13,202.38v25.18c0,12.89,9.4,23.85,22.14,25.81l7.89,1.22v-79.23l-7.89,1.22
		C73.54,178.53,64.13,189.49,64.13,202.38z"/>
	<path class="st0" d="M413.72,176.57l-7.89-1.22v79.23l7.89-1.22c12.74-1.96,22.14-12.92,22.14-25.81v-25.18
		C435.87,189.49,426.46,178.53,413.72,176.57z"/>
	<path class="st0" d="M304.36,104.86C301.4,91.93,290.75,83,252.44,83c-37.74,0-48.64,8.67-51.78,21.29
		c14.24-1.52,30.59-2.4,49.34-2.4C270.99,101.89,288.97,102.99,304.36,104.86z"/>
	<path class="st0" d="M356.24,169.27c-14.81-8.01-44.85-17.56-103.8-17.56c-58.95,0-88.99,9.55-103.8,17.56
		c-8.96,4.85-14.53,14.2-14.53,24.41v57.13c0,10.21,5.57,19.56,14.53,24.41c14.81,8.01,44.84,17.56,103.8,17.56
		c58.96,0,88.99-9.55,103.8-17.56c8.96-4.85,14.53-14.2,14.53-24.41v-57.13C370.77,183.47,365.2,174.12,356.24,169.27z
		 M201.36,219.37c-11.51,0-20.84,5.73-20.84-5.78c0-11.51,9.33-20.84,20.84-20.84c11.51,0,20.84,9.33,20.84,20.84
		C222.2,225.1,212.87,219.37,201.36,219.37z M264.75,263.7c-3.15,3.15-7.5,5.1-12.31,5.1c-9.61,0-17.41-7.8-17.41-17.41
		c0-0.68,0.28-1.31,0.73-1.76c0.45-0.45,1.07-0.73,1.76-0.73h29.84c1.37,0,2.49,1.12,2.49,2.49
		C269.85,256.2,267.9,260.55,264.75,263.7z M311.07,220.01c-2.34-0.33-4.88-0.64-7.55-0.64c-11.51,0-20.84,5.73-20.84-5.78
		c0-11.51,9.33-20.84,20.84-20.84c2.79,0,5.46,0.55,7.9,1.55c7.59,3.11,12.94,10.58,12.94,19.29
		C324.37,222.44,318.85,221.1,311.07,220.01z"/>
	<path class="st0" d="M369.82,130.99c-20.2-10.93-56.11-21.06-119.82-21.06c-63.7,0-99.61,10.13-119.81,21.06
		c-15.89,8.59-25.79,25.22-25.79,43.3v79.23c0,18.07,9.9,34.7,25.79,43.3c20.2,10.93,56.11,21.06,119.81,21.06
		c63.7,0,99.61-10.13,119.82-21.06c15.89-8.6,25.79-25.22,25.79-43.3v-79.23C395.61,156.22,385.71,139.58,369.82,130.99z
		 M377.9,251.53c0,11.99-6.54,22.97-17.07,28.66c-15.61,8.44-47.08,18.5-108.39,18.5c-61.31,0-92.78-10.06-108.39-18.5
		c-10.53-5.69-17.07-16.68-17.07-28.66v-58.57c0-11.99,6.54-22.97,17.07-28.66c15.61-8.44,47.08-18.5,108.39-18.5
		c61.32,0,92.79,10.07,108.39,18.5c10.53,5.69,17.07,16.68,17.07,28.66V251.53z"/>
	<path class="st0" d="M470,157.06c-12.03-28.43-29.24-53.97-51.17-75.89C396.91,59.24,371.37,42.02,342.94,30
		C313.5,17.55,282.23,11.23,250,11.23S186.5,17.55,157.06,30c-28.43,12.03-53.97,29.24-75.89,51.17
		C59.24,103.09,42.02,128.63,30,157.06C17.55,186.5,11.23,217.77,11.23,250c0,42.13,11.12,83.55,32.17,119.77
		c20.42,35.15,49.67,64.72,84.6,85.52c36.77,21.9,78.96,33.48,121.99,33.48c45.24,0,89.28-12.71,127.35-36.77
		c33.46-21.13,61.4-50.51,80.81-84.96c20.02-35.54,30.61-76.01,30.61-117.04C488.77,217.77,482.45,186.5,470,157.06z M447.36,360.96
		c-17.63,31.29-42.69,58.16-72.65,77.98c0.55-7.5,0.83-15.26,0.83-23.28c0-47.23-49.4-77.5-123.1-77.5s-123.1,30.27-123.1,77.5
		c0,9.2,0.37,18.06,1.09,26.59c-31.39-19.57-57.72-46.7-76.31-78.7C34.17,329.21,23.63,289.95,23.63,250
		c0-30.56,5.98-60.21,17.79-88.11c11.4-26.96,27.72-51.17,48.52-71.96c20.79-20.79,45-37.11,71.96-48.52
		c27.9-11.8,57.55-17.79,88.11-17.79s60.21,5.98,88.11,17.79c26.96,11.4,51.17,27.72,71.96,48.52c20.79,20.79,37.12,45,48.52,71.96
		c11.8,27.9,17.79,57.55,17.79,88.11C476.37,288.9,466.34,327.27,447.36,360.96z"/>
</g>
</svg>
