<?xml version="1.0" encoding="utf-8"?>
<!-- Generator: Adobe Illustrator 27.3.1, SVG Export Plug-In . SVG Version: 6.00 Build 0)  -->
<svg version="1.1" id="Layer_1" xmlns="http://www.w3.org/2000/svg" xmlns:xlink="http://www.w3.org/1999/xlink" x="0px" y="0px"
	 viewBox="0 0 500 500" style="enable-background:new 0 0 500 500;" xml:space="preserve">
<style type="text/css">
	.st0{fill:none;stroke:#FFFFFF;stroke-width:10.1527;stroke-miterlimit:10;}
	.st1{fill:none;stroke:#FFFFFF;stroke-width:2.5382;stroke-miterlimit:10;}
</style>
<g>
	<g>
		<path class="st0" d="M5,179.99v33.19c0,16.99,12.4,31.44,29.19,34.02l10.4,1.6V144.36l-10.4,1.6C17.4,148.55,5,163,5,179.99z"/>
		<path class="st0" d="M465.81,145.96l-10.4-1.6V248.8l10.4-1.6c16.79-2.59,29.19-17.03,29.19-34.02v-33.19
			C495,163,482.6,148.55,465.81,145.96z"/>
		<path class="st0" d="M321.65,51.43c-3.9-17.04-17.95-28.82-68.44-28.82c-49.75,0-64.11,11.43-68.26,28.06
			c18.77-2,40.32-3.16,65.04-3.16C277.67,47.52,301.37,48.97,321.65,51.43z"/>
		<path class="st0" d="M185.88,202.38c-15.17,0-27.47,7.55-27.47-7.62c0-15.17,12.3-27.47,27.47-27.47
			c15.17,0,27.47,12.3,27.47,27.47C213.35,209.93,201.05,202.38,185.88,202.38z M269.45,260.81c-4.16,4.15-9.89,6.72-16.23,6.72
			c-12.67,0-22.95-10.28-22.95-22.95c0-0.9,0.36-1.72,0.96-2.31c0.59-0.59,1.42-0.96,2.32-0.96h39.34c1.81,0,3.28,1.47,3.28,3.28
			C276.17,250.92,273.6,256.66,269.45,260.81z M330.51,203.22c-3.08-0.44-6.44-0.84-9.95-0.84c-15.17,0-27.47,7.55-27.47-7.62
			c0-15.17,12.3-27.47,27.47-27.47c3.68,0,7.2,0.72,10.41,2.04c10,4.1,17.06,13.94,17.06,25.43
			C348.03,206.42,340.76,204.66,330.51,203.22z"/>
		<path class="st0" d="M407.94,85.88C381.3,71.47,333.97,58.13,250,58.13c-83.97,0-131.3,13.35-157.93,27.75
			c-20.95,11.33-34,33.25-34,57.07v104.44c0,23.82,13.04,45.74,34,57.07c26.63,14.41,73.97,27.75,157.93,27.75
			c83.97,0,131.31-13.35,157.94-27.75c20.95-11.33,34-33.25,34-57.07V142.95C441.93,119.13,428.89,97.21,407.94,85.88z
			 M418.59,244.77c0,15.8-8.62,30.28-22.5,37.78c-20.57,11.13-62.06,24.39-142.88,24.39c-80.82,0-122.3-13.26-142.87-24.39
			c-13.88-7.51-22.5-21.98-22.5-37.78v-77.21c0-15.8,8.62-30.28,22.5-37.78c20.57-11.12,62.06-24.39,142.87-24.39
			c80.82,0,122.31,13.27,142.88,24.39c13.88,7.51,22.5,21.98,22.5,37.78V244.77z"/>
		<path class="st0" d="M415.19,477.38c0.2-5.33,0.3-10.75,0.3-16.27c0-62.26-65.12-102.16-162.27-102.16S90.95,398.86,90.95,461.12
			c0,4.51,0.07,8.95,0.2,13.33"/>
	</g>
	<path class="st1" d="M390.04,136.33c-19.53-10.55-59.11-23.15-136.83-23.15c-77.71,0-117.3,12.59-136.82,23.15
		c-11.81,6.39-19.15,18.72-19.15,32.18v75.3c0,13.46,7.34,25.78,19.15,32.18c19.53,10.55,59.11,23.15,136.82,23.15
		c77.72,0,117.3-12.59,136.83-23.15c11.81-6.39,19.15-18.71,19.15-32.18v-75.3C409.2,155.05,401.86,142.73,390.04,136.33z"/>
</g>
</svg>
