<?xml version="1.0" encoding="utf-8"?>
<!-- Generator: Adobe Illustrator 27.3.1, SVG Export Plug-In . SVG Version: 6.00 Build 0)  -->
<svg version="1.1" id="Layer_1" xmlns="http://www.w3.org/2000/svg" xmlns:xlink="http://www.w3.org/1999/xlink" x="0px" y="0px"
	 viewBox="0 0 500 500" style="enable-background:new 0 0 500 500;" xml:space="preserve">
<style type="text/css">
	.st0{fill:#FFFFFF;}
</style>
<g>
	<path class="st0" d="M250,244.8c-10.16,0-18.52,7.73-19.5,17.64c-0.07,0.65-0.1,1.3-0.1,1.97c0,10.83,8.78,19.6,19.6,19.6
		c10.83,0,19.6-8.78,19.6-19.6c0-0.66-0.03-1.32-0.1-1.97C268.52,252.53,260.16,244.8,250,244.8z"/>
	<path class="st0" d="M184.76,260.53C184.76,260.53,184.76,260.53,184.76,260.53c-1.8-8.97-9.72-15.73-19.22-15.73
		c-10.16,0-18.52,7.73-19.5,17.64c-0.07,0.65-0.1,1.3-0.1,1.97c0,2.03,0.31,3.99,0.88,5.83c2.29,7.37,8.81,12.87,16.72,13.67
		c0.66,0.07,1.33,0.1,2,0.1c10.83,0,19.6-8.78,19.6-19.6c0-0.66-0.03-1.32-0.1-1.97c-0.06-0.63-0.16-1.26-0.28-1.87
		C184.76,260.55,184.76,260.54,184.76,260.53z"/>
	<path class="st0" d="M353.67,260.53C353.67,260.53,353.67,260.53,353.67,260.53c-1.8-8.97-9.72-15.73-19.22-15.73
		c-10.16,0-18.52,7.73-19.5,17.64c-0.07,0.65-0.1,1.3-0.1,1.97c0,10.83,8.78,19.6,19.6,19.6c10.83,0,19.6-8.78,19.6-19.6
		c0-0.66-0.03-1.32-0.1-1.97c-0.06-0.63-0.16-1.26-0.28-1.87C353.67,260.55,353.67,260.54,353.67,260.53z"/>
	<path class="st0" d="M302.07,131.41c0,0.01,0,0.01,0.01,0.02c0.17,0.63,0.36,1.25,0.56,1.87c0,0.01,0.01,0.03,0.01,0.04
		c0.2,0.61,0.41,1.22,0.63,1.82c0.01,0.02,0.02,0.05,0.03,0.07c0.22,0.59,0.45,1.17,0.7,1.75c0.02,0.04,0.03,0.07,0.05,0.11
		c0.24,0.57,0.5,1.13,0.76,1.69c0.02,0.05,0.05,0.1,0.07,0.15c0.26,0.54,0.54,1.08,0.82,1.62c0.03,0.06,0.07,0.12,0.1,0.18
		c0.28,0.52,0.57,1.03,0.87,1.54c0.04,0.07,0.09,0.15,0.13,0.22c0.3,0.49,0.6,0.98,0.92,1.46c0.06,0.09,0.12,0.17,0.17,0.25
		c0.31,0.47,0.63,0.93,0.96,1.38c0.07,0.1,0.14,0.19,0.21,0.29c0.33,0.44,0.66,0.87,1,1.3c0.09,0.11,0.18,0.21,0.27,0.32
		c0.34,0.41,0.68,0.81,1.03,1.21c0.11,0.12,0.22,0.23,0.32,0.35c0.35,0.38,0.7,0.75,1.06,1.12c0.13,0.13,0.26,0.25,0.39,0.38
		c0.35,0.35,0.71,0.7,1.08,1.04c0.15,0.13,0.3,0.26,0.45,0.4c0.36,0.32,0.73,0.64,1.1,0.96c0.17,0.14,0.34,0.27,0.51,0.41
		c0.37,0.3,0.74,0.59,1.12,0.88c0.19,0.14,0.39,0.28,0.58,0.42c0.37,0.27,0.75,0.54,1.13,0.79c0.21,0.14,0.44,0.28,0.65,0.42
		c0.38,0.24,0.76,0.49,1.15,0.72c0.24,0.14,0.49,0.28,0.73,0.42c0.38,0.22,0.76,0.44,1.15,0.64c0.26,0.14,0.54,0.27,0.8,0.4
		c0.38,0.19,0.77,0.39,1.16,0.57c0.29,0.13,0.58,0.26,0.88,0.39c0.39,0.17,0.77,0.34,1.17,0.5c0.31,0.13,0.64,0.24,0.96,0.36
		c0.39,0.15,0.78,0.3,1.18,0.44c0.34,0.12,0.69,0.22,1.04,0.33c0.39,0.12,0.78,0.25,1.17,0.37c0.36,0.11,0.74,0.2,1.11,0.3
		c0.4,0.1,0.79,0.21,1.19,0.31c0.39,0.09,0.78,0.17,1.17,0.25c0.4,0.08,0.8,0.18,1.21,0.25c0.42,0.08,0.85,0.14,1.27,0.21
		c0.4,0.06,0.79,0.13,1.19,0.19c0.45,0.06,0.91,0.1,1.36,0.15c0.4,0.04,0.78,0.1,1.19,0.13c0.48,0.04,0.97,0.07,1.45,0.1
		c0.39,0.02,0.78,0.06,1.18,0.08c0.52,0.02,1.06,0.02,1.59,0.03c0.37,0.01,0.74,0.02,1.12,0.02c0.59,0,1.2-0.02,1.81-0.04
		c0.33-0.01,0.65-0.01,0.98-0.02c0.93-0.04,1.87-0.11,2.82-0.19c0.02,0,0.04,0,0.05,0c9.32-0.83,16.31-3.56,21.55-7.19
		c3.93-2.73,6.87-5.96,9.08-9.28c6.62-9.95,6.6-20.66,6.6-20.66h0l-59.59-84.15h-45.65l16.86,83.2
		C301,126.94,301.45,129.19,302.07,131.41z"/>
	<path class="st0" d="M110.9,125.61c0,0-0.02,10.7,6.6,20.66c2.21,3.32,5.15,6.55,9.08,9.28c5.24,3.64,12.23,6.37,21.55,7.19
		c0.02,0,0.04,0,0.05,0c0.95,0.08,1.89,0.15,2.82,0.19c0.33,0.02,0.66,0.01,0.98,0.02c0.61,0.02,1.21,0.04,1.81,0.04
		c0.38,0,0.74-0.02,1.12-0.02c0.53-0.01,1.07-0.01,1.59-0.03c0.4-0.02,0.78-0.05,1.18-0.08c0.49-0.03,0.98-0.05,1.45-0.1
		c0.4-0.04,0.79-0.09,1.19-0.13c0.45-0.05,0.91-0.09,1.36-0.15c0.4-0.05,0.8-0.13,1.19-0.19c0.42-0.07,0.85-0.13,1.27-0.21
		c0.41-0.08,0.8-0.17,1.21-0.25c0.39-0.08,0.79-0.16,1.17-0.25c0.4-0.1,0.79-0.21,1.19-0.31c0.37-0.1,0.75-0.19,1.11-0.3
		c0.4-0.12,0.78-0.24,1.17-0.37c0.35-0.11,0.7-0.22,1.04-0.33c0.4-0.14,0.79-0.29,1.18-0.44c0.32-0.12,0.64-0.24,0.96-0.36
		c0.4-0.16,0.78-0.33,1.17-0.5c0.29-0.13,0.59-0.25,0.88-0.39c0.39-0.18,0.78-0.38,1.16-0.57c0.27-0.13,0.54-0.26,0.8-0.4
		c0.39-0.21,0.77-0.43,1.15-0.64c0.24-0.14,0.49-0.27,0.73-0.42c0.39-0.23,0.77-0.48,1.15-0.72c0.22-0.14,0.44-0.28,0.65-0.42
		c0.39-0.26,0.76-0.53,1.13-0.79c0.19-0.14,0.39-0.28,0.58-0.42c0.38-0.28,0.75-0.58,1.12-0.88c0.17-0.14,0.34-0.27,0.51-0.41
		c0.38-0.31,0.74-0.63,1.1-0.96c0.15-0.13,0.3-0.26,0.45-0.4c0.37-0.34,0.73-0.69,1.08-1.04c0.13-0.13,0.26-0.25,0.39-0.38
		c0.36-0.37,0.71-0.74,1.06-1.12c0.11-0.12,0.22-0.23,0.32-0.35c0.35-0.4,0.7-0.8,1.03-1.21c0.09-0.11,0.18-0.21,0.27-0.32
		c0.34-0.42,0.67-0.86,1-1.29c0.07-0.1,0.15-0.19,0.22-0.29c0.33-0.45,0.65-0.91,0.96-1.38c0.06-0.09,0.12-0.17,0.17-0.26
		c0.32-0.48,0.62-0.96,0.92-1.45c0.05-0.08,0.09-0.15,0.14-0.23c0.3-0.5,0.59-1.02,0.87-1.53c0.03-0.06,0.07-0.13,0.1-0.19
		c0.28-0.53,0.56-1.07,0.82-1.61c0.02-0.05,0.05-0.1,0.07-0.15c0.27-0.56,0.52-1.12,0.76-1.69c0.02-0.04,0.03-0.07,0.05-0.11
		c0.25-0.58,0.48-1.16,0.7-1.75c0.01-0.03,0.02-0.05,0.03-0.08c0.22-0.6,0.43-1.2,0.63-1.81c0-0.01,0.01-0.03,0.01-0.04
		c0.2-0.62,0.39-1.24,0.56-1.87c0-0.01,0-0.01,0.01-0.02c0.17-0.63,0.34-1.27,0.48-1.91c0,0,0,0,0,0c0.37-1.6,0.66-3.21,0.86-4.84
		l16.86-83.2h-45.65L110.9,125.61L110.9,125.61z"/>
	<path class="st0" d="M205.48,125.61l-0.03,0.19c0,20.4,19.94,36.94,44.55,36.94c24.6,0,44.55-16.54,44.55-36.94l-0.03-0.19h-0.01
		l-17.34-84.15h-54.32l-17.34,84.15H205.48z"/>
	<path class="st0" d="M484,125.61L381.31,41.45h-45.65l59.97,83.2c0.2,1.62,0.49,3.24,0.85,4.83c0,0,0,0.01,0,0.01
		c0.15,0.64,0.31,1.27,0.48,1.9c0,0.01,0.01,0.02,0.01,0.03c0.17,0.62,0.36,1.24,0.56,1.86c0.01,0.02,0.01,0.03,0.02,0.05
		c0.2,0.61,0.41,1.21,0.63,1.81c0.01,0.03,0.02,0.05,0.03,0.08c0.22,0.59,0.45,1.17,0.7,1.75c0.02,0.04,0.03,0.07,0.05,0.11
		c0.24,0.57,0.49,1.13,0.76,1.68c0.02,0.05,0.05,0.1,0.07,0.15c0.26,0.54,0.53,1.08,0.82,1.61c0.03,0.06,0.07,0.12,0.1,0.19
		c0.28,0.52,0.57,1.03,0.87,1.53c0.04,0.07,0.09,0.15,0.14,0.22c0.3,0.49,0.6,0.98,0.92,1.46c0.06,0.09,0.12,0.17,0.17,0.26
		c0.31,0.47,0.63,0.93,0.96,1.38c0.07,0.1,0.14,0.19,0.21,0.29c0.33,0.44,0.66,0.87,1,1.3c0.09,0.11,0.18,0.21,0.27,0.32
		c0.34,0.41,0.68,0.81,1.03,1.21c0.11,0.12,0.22,0.23,0.32,0.35c0.35,0.38,0.7,0.76,1.06,1.12c0.12,0.13,0.25,0.25,0.38,0.37
		c0.36,0.35,0.72,0.7,1.09,1.04c0.14,0.13,0.29,0.26,0.44,0.39c0.36,0.32,0.73,0.65,1.11,0.96c0.16,0.14,0.34,0.27,0.5,0.4
		c0.37,0.3,0.74,0.59,1.13,0.88c0.19,0.14,0.38,0.28,0.58,0.41c0.38,0.27,0.75,0.54,1.14,0.8c0.21,0.14,0.43,0.28,0.65,0.42
		c0.38,0.24,0.76,0.49,1.15,0.72c0.24,0.14,0.48,0.27,0.72,0.41c0.38,0.22,0.77,0.44,1.16,0.65c0.26,0.14,0.53,0.27,0.79,0.4
		c0.39,0.2,0.78,0.39,1.17,0.58c0.28,0.13,0.58,0.25,0.87,0.38c0.39,0.17,0.78,0.35,1.18,0.51c0.31,0.13,0.63,0.24,0.95,0.36
		c0.39,0.15,0.78,0.3,1.19,0.44c0.34,0.12,0.68,0.22,1.02,0.33c0.4,0.13,0.79,0.26,1.19,0.37c0.36,0.1,0.73,0.2,1.1,0.29
		c0.4,0.11,0.8,0.22,1.21,0.31c0.38,0.09,0.77,0.17,1.16,0.25c0.4,0.09,0.8,0.18,1.22,0.25c0.41,0.08,0.84,0.14,1.26,0.21
		c0.4,0.06,0.79,0.14,1.2,0.19c0.44,0.06,0.9,0.1,1.35,0.15c0.4,0.04,0.79,0.1,1.19,0.13c0.47,0.04,0.96,0.07,1.45,0.1
		c0.09,0.01,0.17,0.01,0.26,0.02v174.77c0,13.98-9.41,25.79-22.23,29.46c-0.18,0.05-0.36,0.09-0.55,0.14
		c-0.72,0.19-1.44,0.37-2.18,0.51c-1.86,0.35-3.76,0.55-5.72,0.55h-27.47c-13.24,0-23.98,10.74-23.98,23.98v39.71
		c0,1.58-1.94,2.33-3.01,1.17l-49.41-53.67c-6.57-7.14-15.82-11.19-25.52-11.19H93.2c-1.96,0-3.86-0.2-5.72-0.56h0
		c-1.1-0.21-2.17-0.5-3.23-0.82c-0.29-0.09-0.58-0.19-0.87-0.29c-0.83-0.28-1.64-0.59-2.43-0.94c-0.23-0.1-0.46-0.19-0.69-0.3
		c-0.99-0.46-1.95-0.97-2.88-1.54c-0.15-0.09-0.3-0.2-0.45-0.29c-0.79-0.49-1.55-1.02-2.28-1.59c-0.21-0.16-0.43-0.33-0.64-0.5
		c-0.81-0.65-1.59-1.33-2.32-2.06c-0.04-0.03-0.07-0.07-0.11-0.1c-0.79-0.79-1.53-1.63-2.23-2.49c-0.13-0.16-0.25-0.33-0.38-0.49
		c-0.58-0.74-1.12-1.52-1.63-2.31c-0.11-0.17-0.22-0.33-0.32-0.51c-0.59-0.97-1.14-1.97-1.62-3c-1.83-3.92-2.85-8.29-2.85-12.89
		V168.09v-5.2c0.09-0.01,0.17-0.01,0.26-0.02c0.48-0.03,0.97-0.05,1.45-0.1c0.4-0.04,0.79-0.09,1.19-0.13
		c0.45-0.05,0.91-0.09,1.35-0.15c0.41-0.06,0.8-0.13,1.2-0.19c0.42-0.07,0.85-0.13,1.26-0.21c0.41-0.08,0.81-0.17,1.22-0.25
		c0.39-0.08,0.78-0.16,1.16-0.25c0.41-0.1,0.8-0.21,1.2-0.31c0.37-0.1,0.74-0.19,1.1-0.29c0.4-0.12,0.79-0.25,1.19-0.37
		c0.34-0.11,0.69-0.21,1.03-0.33c0.4-0.14,0.79-0.29,1.19-0.44c0.32-0.12,0.64-0.23,0.95-0.36c0.4-0.16,0.79-0.34,1.18-0.51
		c0.29-0.13,0.58-0.25,0.87-0.38c0.4-0.19,0.79-0.38,1.17-0.58c0.26-0.13,0.53-0.26,0.79-0.4c0.4-0.21,0.78-0.43,1.16-0.65
		c0.24-0.14,0.48-0.27,0.72-0.41c0.39-0.23,0.77-0.48,1.15-0.72c0.22-0.14,0.43-0.27,0.65-0.42c0.39-0.26,0.76-0.53,1.14-0.8
		c0.19-0.14,0.39-0.27,0.58-0.41c0.38-0.29,0.76-0.58,1.13-0.88c0.17-0.13,0.34-0.27,0.5-0.4c0.38-0.31,0.74-0.64,1.11-0.96
		c0.15-0.13,0.3-0.26,0.44-0.39c0.37-0.34,0.73-0.69,1.09-1.04c0.13-0.12,0.26-0.25,0.38-0.37c0.36-0.37,0.71-0.74,1.06-1.12
		c0.11-0.12,0.22-0.23,0.32-0.35c0.35-0.4,0.7-0.8,1.03-1.21c0.09-0.11,0.18-0.21,0.27-0.32c0.34-0.43,0.68-0.86,1-1.3
		c0.07-0.1,0.14-0.19,0.21-0.29c0.33-0.45,0.65-0.91,0.96-1.38c0.06-0.09,0.12-0.17,0.17-0.26c0.32-0.48,0.62-0.97,0.92-1.46
		c0.05-0.07,0.09-0.15,0.14-0.22c0.3-0.51,0.59-1.02,0.87-1.53c0.03-0.06,0.07-0.12,0.1-0.19c0.28-0.53,0.56-1.07,0.82-1.61
		c0.02-0.05,0.05-0.1,0.07-0.15c0.27-0.56,0.52-1.12,0.76-1.68c0.02-0.04,0.03-0.07,0.05-0.11c0.25-0.58,0.48-1.16,0.7-1.75
		c0.01-0.03,0.02-0.05,0.03-0.08c0.22-0.6,0.43-1.2,0.63-1.81c0.01-0.02,0.01-0.03,0.02-0.05c0.2-0.62,0.38-1.24,0.56-1.86
		c0-0.01,0.01-0.02,0.01-0.03c0.17-0.63,0.33-1.26,0.48-1.9c0,0,0-0.01,0-0.01c0.37-1.6,0.66-3.21,0.85-4.83l59.97-83.2h-45.65
		L16,125.61c0,0-0.04,27.69,27.56,35.41v5.32c0,0,0,0,0,0v151.56v11.22v8.55c0,6,1.06,11.75,3.01,17.07
		c6.96,19.01,25.21,32.57,46.63,32.57h184.2c4.38,0,8.6,1.85,11.57,5.07l55.85,60.67c0.82,0.9,1.72,1.69,2.68,2.37
		c0.48,0.34,0.97,0.66,1.48,0.94c2.54,1.44,5.39,2.19,8.29,2.19c2.76,0,5.57-0.68,8.19-2.09c1.4-0.75,2.65-1.7,3.74-2.79
		c3.27-3.27,5.11-7.87,5.11-12.63v-8.55v-40.16c0-2.77,2.24-5.01,5.01-5.01h27.47c27.41,0,49.64-22.22,49.64-49.64v-19.77V166.34
		c0,0,0,0,0,0v-5.32C484.04,153.3,484,125.61,484,125.61z M58.13,162.99c-0.12,0-0.25-0.01-0.37-0.01
		C57.88,162.98,58.01,162.98,58.13,162.99z M44.38,161.23c0.61,0.16,1.23,0.31,1.86,0.45C45.6,161.54,44.98,161.38,44.38,161.23z
		 M47.3,161.89c0.63,0.12,1.26,0.24,1.92,0.34C48.56,162.13,47.92,162.02,47.3,161.89z M50.19,162.39c0.99,0.14,1.99,0.26,3.04,0.36
		C52.18,162.65,51.18,162.53,50.19,162.39z M441.87,162.99c0.12,0,0.25-0.01,0.37-0.01c-0.08,0-0.16,0.01-0.24,0.01
		C441.96,162.99,441.91,162.99,441.87,162.99z M449.37,162.45c-0.85,0.11-1.71,0.21-2.6,0.29c1.05-0.09,2.05-0.22,3.04-0.36
		C449.66,162.41,449.52,162.43,449.37,162.45z M450.78,162.23c0.65-0.1,1.29-0.22,1.92-0.34
		C452.08,162.02,451.44,162.13,450.78,162.23z M453.76,161.68c0.64-0.14,1.25-0.29,1.86-0.45
		C455.02,161.38,454.4,161.54,453.76,161.68z"/>
</g>
</svg>
