<?xml version="1.0" encoding="utf-8"?>
<!-- Generator: Adobe Illustrator 27.3.1, SVG Export Plug-In . SVG Version: 6.00 Build 0)  -->
<svg version="1.1" id="Layer_1" xmlns="http://www.w3.org/2000/svg" xmlns:xlink="http://www.w3.org/1999/xlink" x="0px" y="0px"
	 viewBox="0 0 500 500" style="enable-background:new 0 0 500 500;" xml:space="preserve">
<style type="text/css">
	.st0{fill:none;stroke:#FFFFFF;stroke-width:4.1138;stroke-miterlimit:10;}
</style>
<path class="st0" d="M243.59,387.74H37.36c-9.58,0-17.36,7.79-17.36,17.36v45.58c0,9.58,7.8,17.35,17.36,17.35h206.22
	c9.58,0,17.36-7.79,17.36-17.35V405.1C260.95,395.52,253.15,387.74,243.59,387.74z M77.92,408.35h125.11c2.99,0,5.42,2.43,5.42,5.42
	s-2.43,5.42-5.42,5.42H77.92c-2.99,0-5.42-2.43-5.42-5.42C72.5,410.79,74.93,408.35,77.92,408.35z M237.44,447.43H43.51
	c-2.99,0-5.42-2.43-5.42-5.42s2.43-5.42,5.42-5.42h193.94c2.99,0,5.42,2.43,5.42,5.42C242.86,444.99,240.44,447.43,237.44,447.43z
	 M351.26,172.97H146.74c-19.47,0-35.31,15.84-35.31,35.31v81.46c0,19.47,15.84,35.31,35.31,35.31h204.51
	c19.47,0,35.31-15.84,35.31-35.31v-81.46C386.56,188.8,370.73,172.97,351.26,172.97z M164.37,205.59h169.27
	c2.99,0,5.42,2.43,5.42,5.42c0,2.99-2.43,5.42-5.42,5.42H164.37c-2.99,0-5.42-2.43-5.42-5.42
	C158.94,208.02,161.37,205.59,164.37,205.59z M333.63,292.42H164.37c-2.99,0-5.42-2.43-5.42-5.42s2.43-5.42,5.42-5.42h169.27
	c2.99,0,5.42,2.43,5.42,5.42S336.63,292.42,333.63,292.42z M352.76,254.43H145.24c-2.99,0-5.42-2.43-5.42-5.42s2.43-5.42,5.42-5.42
	h207.53c2.99,0,5.42,2.43,5.42,5.42C358.2,252,355.76,254.43,352.76,254.43z M460.64,29.97H220.23c-9.58,0-17.35,7.79-17.35,17.35
	v45.59c0,9.58,7.79,17.35,17.35,17.35h240.41c9.58,0,17.36-7.79,17.36-17.35V47.33C478,37.76,470.2,29.97,460.64,29.97z
	 M277.88,50.58h125.11c3,0,5.42,2.43,5.42,5.42s-2.42,5.42-5.42,5.42H277.88c-2.99,0-5.42-2.43-5.42-5.42
	C272.45,53.02,274.88,50.58,277.88,50.58z M437.4,89.66H243.47c-2.99,0-5.42-2.43-5.42-5.42c0-2.99,2.43-5.42,5.42-5.42H437.4
	c2.99,0,5.42,2.43,5.42,5.42C442.82,87.24,440.39,89.66,437.4,89.66z M465.63,278.43v120.02c0,19.23-15.64,34.86-34.86,34.86H271.8
	v-10.85h158.98c13.23,0,24.01-10.77,24.01-24.01V278.43c0-13.24-10.78-24.01-24.01-24.01h-33.36v-10.85h33.36
	C450,243.58,465.63,259.22,465.63,278.43z M192.02,64.7v10.85H67.22c-13.23,0-24.01,10.77-24.01,24.01v120.02
	c0,13.24,10.78,24.01,24.01,24.01h33.36v10.85H67.22c-19.23,0-34.86-15.64-34.86-34.86V99.56c0-19.23,15.64-34.86,34.86-34.86
	H192.02z"/>
</svg>
