<?xml version="1.0" encoding="utf-8"?>
<!-- Generator: Adobe Illustrator 27.3.1, SVG Export Plug-In . SVG Version: 6.00 Build 0)  -->
<svg version="1.1" id="Layer_1" xmlns="http://www.w3.org/2000/svg" xmlns:xlink="http://www.w3.org/1999/xlink" x="0px" y="0px"
	 viewBox="0 0 500 500" style="enable-background:new 0 0 500 500;" xml:space="preserve">
<style type="text/css">
	.st0{fill:none;stroke:#FFFFFF;stroke-width:7.7455;stroke-miterlimit:10;}
</style>
<g>
	<g>
		<path class="st0" d="M462.72,263.21c-28.64,43.1-78.42,77.02-141.26,92.6c-23.91,5.84-49.22,8.9-74.52,8.9
			c-27.81,0-61.73-6.95-100.94-20.86l-33.37,40.04c21.41,14.18,46.44,25.3,73.69,31.98c21.41,5.28,43.93,8.06,66.74,8.06
			c26.42,0,60.06-7.79,100.1-22.8l0,0c0.28,0,0.56-0.28,0.83-0.28c0.28,0,0.56-0.28,0.83-0.28c0.28,0,0.56,0,0.83-0.28h0.28
			c0.28,0,0.28,0,0.56,0s0.56,0,0.83,0s0.28,0,0.56,0c0.28,0,0.83,0,1.11,0l0,0c0.28,0,0.56,0,1.11,0c1.39,0,2.5,0.28,3.89,0.83
			c0.28,0,0.28,0,0.56,0.28c0.56,0.28,1.11,0.56,1.67,0.83c0.28,0.28,0.56,0.28,1.11,0.56c0.28,0,0.28,0.28,0.56,0.28
			c0.83,0.56,1.67,1.11,2.22,1.67c0.28,0.28,0.56,0.56,0.83,0.83c0.28,0.28,0.56,0.56,0.83,0.83l0.28,0.28l59.78,71.74l-17.8-99.27
			v-0.28c-0.28-1.11-0.28-1.95-0.28-2.78c0-0.28,0-0.83,0-1.11c0-0.56,0-0.83,0.28-1.39c0-0.28,0-0.56,0-0.56
			c0-0.28,0.28-0.83,0.28-1.11c0,0,0,0,0-0.28c0-0.28,0-0.56,0.28-0.83c0-0.28,0-0.28,0.28-0.56c0-0.28,0.28-0.56,0.28-0.83l0,0
			c0.28-0.28,0.28-0.83,0.56-1.11c0-0.28,0.28-0.28,0.28-0.56c0.28-0.56,0.83-1.11,1.11-1.67c0.28-0.28,0.28-0.56,0.56-0.56
			c0.28-0.28,0.56-0.83,1.11-1.11l0,0c16.96-16.41,29.2-33.65,36.15-52c2.78-6.67,4.73-13.9,6.12-21.13
			c1.39-6.95,1.95-14.18,1.95-21.69C462.72,266.82,462.72,265.15,462.72,263.21z"/>
		<path class="st0" d="M128.21,314.09l33.92-40.6c5.84-6.95,16.13-7.79,23.08-2.22c6.95,5.84,7.79,16.13,2.22,23.08l-18.91,22.52
			c30.59,10.01,57,15.02,78.42,15.02c22.8,0,45.33-2.78,66.74-8.06c70.63-17.52,122.35-60.9,138.2-112.9c0,0,0,0,0-0.28
			c0.28-0.56,0.28-1.11,0.56-1.67c3.06-10.57,4.45-21.13,4.45-32.26c0-85.37-94.26-155.16-209.94-155.16S37,91.08,37,176.73
			c0,7.23,0.56,14.46,1.95,21.41c1.39,7.23,3.34,14.18,6.12,21.13c6.95,18.07,19.19,35.59,36.15,52l0,0
			c0.28,0.28,0.83,0.83,1.11,1.11c0.28,0.56,0.83,0.83,1.11,1.39c0.28,0.56,0.56,0.83,0.83,1.39c0.28,0.28,0.28,0.83,0.56,1.11
			c0.28,0.28,0.28,0.56,0.28,0.83v0.28c0.28,0.28,0.28,0.56,0.28,1.11c0,0.28,0.28,0.83,0.28,1.11c0,0.56,0.28,1.11,0.28,1.67l0,0
			c0,0.56,0,1.11,0,1.67c0,0.83,0,1.95-0.28,2.78v0.28l-17.8,99.55l7.79-9.18l0,0c0.28-0.28,0.56-0.56,0.56-0.83l51.16-61.45H128.21
			z M367.9,148.37c15.85,0,28.64,12.79,28.64,28.64s-12.79,28.64-28.64,28.64c-15.85,0-28.64-12.79-28.64-28.64
			S352.05,148.37,367.9,148.37z M246.94,148.37c15.85,0,28.64,12.79,28.64,28.64s-12.79,28.64-28.64,28.64s-28.64-12.79-28.64-28.64
			S231.09,148.37,246.94,148.37z M97.06,177.01c0-15.85,12.79-28.64,28.64-28.64s28.64,12.79,28.64,28.64s-12.79,28.64-28.64,28.64
			S97.06,192.86,97.06,177.01z"/>
	</g>
</g>
</svg>
