<?xml version="1.0" encoding="utf-8"?>
<!-- Generator: Adobe Illustrator 27.3.1, SVG Export Plug-In . SVG Version: 6.00 Build 0)  -->
<svg version="1.1" id="Layer_1" xmlns="http://www.w3.org/2000/svg" xmlns:xlink="http://www.w3.org/1999/xlink" x="0px" y="0px"
	 viewBox="0 0 500 500" style="enable-background:new 0 0 500 500;" xml:space="preserve">
<style type="text/css">
	.st0{fill:#FFFFFF;}
	.st1{clip-path:url(#SVGID_00000170254485508654023040000006485953747535477163_);fill:#FFFFFF;}
</style>
<g>
	<g>
		<g>
			<path class="st0" d="M245.88,447.95h-0.1c-1.46,0-2.92-0.02-4.38-0.05l0.05-2.23c1.44,0.03,2.88,0.05,4.33,0.05L245.88,447.95z
				 M250.36,447.9l-0.05-2.23c1.48-0.03,2.95-0.08,4.42-0.14l0.1,2.23C253.34,447.82,251.85,447.87,250.36,447.9z M236.93,447.76
				c-1.49-0.06-2.98-0.14-4.47-0.24l0.14-2.23c1.47,0.09,2.94,0.17,4.42,0.24L236.93,447.76z M259.3,447.51l-0.15-2.23
				c1.48-0.1,2.95-0.21,4.42-0.34l0.19,2.22C262.27,447.3,260.79,447.42,259.3,447.51z M228,447.19c-1.49-0.13-2.98-0.27-4.46-0.43
				l0.24-2.22c1.46,0.16,2.93,0.3,4.41,0.43L228,447.19z M268.21,446.74l-0.24-2.22c1.47-0.16,2.94-0.34,4.4-0.53l0.29,2.21
				C271.18,446.4,269.7,446.58,268.21,446.74z M219.1,446.23c-1.48-0.19-2.96-0.4-4.43-0.62l0.33-2.2c1.46,0.22,2.92,0.43,4.39,0.62
				L219.1,446.23z M277.09,445.58l-0.34-2.2c1.46-0.22,2.92-0.46,4.37-0.72l0.39,2.2C280.04,445.11,278.57,445.35,277.09,445.58z
				 M210.25,444.89c-1.47-0.26-2.94-0.53-4.4-0.82l0.43-2.19c1.45,0.29,2.9,0.56,4.35,0.81L210.25,444.89z M285.91,444.03
				l-0.43-2.19c1.45-0.29,2.9-0.59,4.33-0.91l0.48,2.18C288.84,443.43,287.37,443.74,285.91,444.03z M201.46,443.15
				c-1.46-0.32-2.91-0.66-4.36-1.01l0.53-2.17c1.43,0.35,2.87,0.68,4.31,1L201.46,443.15z M294.65,442.1l-0.53-2.17
				c1.44-0.35,2.87-0.72,4.29-1.1l0.58,2.15C297.55,441.37,296.1,441.74,294.65,442.1z M192.76,441.03
				c-1.44-0.39-2.88-0.79-4.31-1.2l0.62-2.14c1.42,0.41,2.84,0.81,4.27,1.19L192.76,441.03z M303.3,439.78l-0.63-2.14
				c1.42-0.41,2.83-0.84,4.24-1.29l0.67,2.13C306.16,438.93,304.73,439.37,303.3,439.78z M184.17,438.54
				c-1.43-0.45-2.85-0.92-4.27-1.4l0.72-2.11c1.4,0.47,2.81,0.93,4.23,1.38L184.17,438.54z M311.84,437.09l-0.72-2.11
				c1.4-0.47,2.79-0.97,4.18-1.47l0.76,2.1C314.66,436.11,313.26,436.61,311.84,437.09z M175.65,435.65
				c-1.41-0.51-2.81-1.04-4.2-1.58l0.81-2.08c1.38,0.54,2.77,1.06,4.16,1.56L175.65,435.65z M320.25,434.03l-0.81-2.08
				c1.37-0.53,2.74-1.08,4.09-1.64l0.86,2.06C323.02,432.93,321.64,433.49,320.25,434.03z M167.28,432.4
				c-1.38-0.57-2.76-1.16-4.13-1.76l0.9-2.04c1.35,0.6,2.71,1.18,4.08,1.74L167.28,432.4z M328.49,430.61l-0.9-2.04
				c1.35-0.59,2.69-1.2,4.02-1.82l0.94,2.02C331.21,429.39,329.85,430,328.49,430.61z M159.07,428.78
				c-1.36-0.63-2.71-1.28-4.05-1.94l0.99-2c1.33,0.66,2.66,1.3,4,1.92L159.07,428.78z M336.58,426.83l-0.99-2
				c1.32-0.65,2.63-1.32,3.94-2l1.03,1.98C339.24,425.49,337.91,426.17,336.58,426.83z M151.02,424.81
				c-1.33-0.69-2.64-1.4-3.95-2.12l1.07-1.95c1.3,0.71,2.6,1.41,3.91,2.09L151.02,424.81z M344.49,422.7l-1.07-1.95
				c1.29-0.71,2.57-1.43,3.85-2.17l1.12,1.93C347.1,421.25,345.8,421.98,344.49,422.7z M352.23,418.23l-1.16-1.91
				c1.26-0.77,2.51-1.54,3.75-2.34l1.2,1.88C354.76,416.67,353.5,417.45,352.23,418.23z M359.76,413.42l-1.24-1.85
				c1.23-0.82,2.44-1.65,3.65-2.5l1.28,1.83C362.23,411.75,361,412.59,359.76,413.42z M367.08,408.29l-1.32-1.8
				c1.19-0.87,2.37-1.76,3.54-2.66l1.36,1.77C369.48,406.51,368.28,407.41,367.08,408.29z M374.18,402.84l-1.4-1.74
				c1.15-0.92,2.29-1.86,3.42-2.81l1.43,1.71C376.49,400.96,375.34,401.91,374.18,402.84z M381.03,397.09l-1.47-1.68
				c1.11-0.97,2.21-1.96,3.3-2.95l1.51,1.64C383.26,395.11,382.15,396.11,381.03,397.09z M387.63,391.05l-1.54-1.61
				c1.07-1.02,2.12-2.05,3.17-3.09l1.58,1.58C389.77,388.98,388.71,390.02,387.63,391.05z M393.96,384.73l-1.61-1.54
				c1.02-1.07,2.03-2.14,3.03-3.23l1.64,1.51C396.01,382.56,394.99,383.65,393.96,384.73z M400.02,378.13l-1.68-1.47
				c0.97-1.11,1.94-2.23,2.89-3.36l1.71,1.44C401.97,375.87,401,377.01,400.02,378.13z M405.78,371.27l-1.74-1.4
				c0.93-1.15,1.84-2.31,2.74-3.48l1.77,1.36C407.64,368.94,406.72,370.11,405.78,371.27z M411.24,364.17l-1.8-1.32
				c0.88-1.19,1.74-2.39,2.59-3.6l1.83,1.28C413,361.75,412.13,362.97,411.24,364.17z M416.39,356.84l-1.85-1.24
				c0.82-1.23,1.63-2.46,2.43-3.71l1.88,1.2C418.04,354.35,417.23,355.6,416.39,356.84z M421.22,349.28l-1.9-1.16
				c0.77-1.26,1.52-2.53,2.26-3.81l1.93,1.12C422.76,346.72,422,348.01,421.22,349.28z M43.67,278.53c-0.26-1.47-0.5-2.94-0.73-4.42
				l2.2-0.34c0.22,1.46,0.47,2.92,0.72,4.37L43.67,278.53z M42.31,269.68c-0.19-1.48-0.37-2.96-0.53-4.44l2.22-0.24
				c0.16,1.47,0.34,2.94,0.53,4.4L42.31,269.68z M41.34,260.78c-0.13-1.48-0.24-2.97-0.34-4.46l2.23-0.15
				c0.1,1.48,0.21,2.95,0.34,4.42L41.34,260.78z M40.75,251.85c-0.07-1.48-0.11-2.97-0.15-4.46l2.23-0.05
				c0.03,1.48,0.08,2.95,0.15,4.42L40.75,251.85z M450.98,247.19l-2.23-0.05c0.03-1.47,0.05-2.95,0.05-4.43v-0.37h2.23v0.37
				C451.02,244.21,451.01,245.7,450.98,247.19z M42.78,242.91h-2.23l0-0.18c0-1.44,0.01-2.87,0.04-4.29l2.23,0.05
				c-0.03,1.41-0.04,2.82-0.04,4.24L42.78,242.91z M448.74,237.92c-0.03-1.48-0.08-2.96-0.15-4.43l2.23-0.1
				c0.07,1.49,0.12,2.98,0.15,4.47L448.74,237.92z M42.97,234.05l-2.23-0.09c0.06-1.49,0.14-2.98,0.24-4.47l2.23,0.14
				C43.11,231.1,43.03,232.57,42.97,234.05z M448.34,229.07c-0.1-1.48-0.21-2.95-0.34-4.42l2.22-0.19c0.13,1.48,0.25,2.97,0.35,4.46
				L448.34,229.07z M43.53,225.21l-2.22-0.19c0.13-1.49,0.27-2.98,0.43-4.46l2.22,0.24C43.8,222.27,43.65,223.74,43.53,225.21z
				 M447.56,220.25c-0.16-1.47-0.34-2.94-0.53-4.4l2.21-0.29c0.19,1.48,0.37,2.96,0.54,4.44L447.56,220.25z M44.47,216.41
				l-2.21-0.29c0.19-1.48,0.4-2.96,0.62-4.43l2.21,0.34C44.87,213.48,44.66,214.94,44.47,216.41z M446.4,211.47
				c-0.23-1.46-0.47-2.92-0.72-4.37l2.2-0.39c0.26,1.47,0.5,2.94,0.73,4.42L446.4,211.47z M45.8,207.65l-2.2-0.38
				c0.26-1.47,0.53-2.94,0.82-4.4l2.19,0.43C46.32,204.74,46.05,206.2,45.8,207.65z M444.86,202.75c-0.29-1.45-0.59-2.89-0.91-4.33
				l2.18-0.49c0.32,1.45,0.63,2.91,0.93,4.38L444.86,202.75z M47.51,198.96l-2.18-0.48c0.32-1.46,0.66-2.91,1.01-4.36l2.17,0.53
				C48.16,196.08,47.83,197.52,47.51,198.96z M442.94,194.11c-0.35-1.44-0.72-2.86-1.1-4.29l2.15-0.58
				c0.39,1.44,0.76,2.88,1.12,4.34L442.94,194.11z M49.6,190.36l-2.16-0.57c0.38-1.44,0.78-2.88,1.2-4.31l2.14,0.62
				C50.38,187.51,49.98,188.93,49.6,190.36z M440.63,185.56c-0.42-1.42-0.85-2.83-1.29-4.24l2.13-0.67
				c0.45,1.42,0.89,2.85,1.31,4.28L440.63,185.56z M52.07,181.85l-2.13-0.67c0.45-1.43,0.91-2.86,1.39-4.27l2.11,0.72
				C52.97,179.03,52.51,180.44,52.07,181.85z M437.96,177.11c-0.48-1.4-0.97-2.79-1.48-4.17l2.1-0.77c0.51,1.4,1.01,2.81,1.49,4.22
				L437.96,177.11z M54.91,173.43l-2.1-0.76c0.51-1.41,1.04-2.81,1.58-4.21l2.08,0.81C55.94,170.65,55.42,172.04,54.91,173.43z
				 M434.91,168.8c-0.54-1.37-1.09-2.73-1.65-4.09l2.06-0.86c0.57,1.37,1.13,2.75,1.67,4.14L434.91,168.8z M58.13,165.15l-2.06-0.85
				c0.57-1.38,1.16-2.76,1.76-4.13l2.04,0.9C59.28,162.42,58.69,163.78,58.13,165.15z M431.52,160.65c-0.6-1.35-1.21-2.69-1.83-4.02
				l2.02-0.95c0.63,1.35,1.25,2.7,1.85,4.06L431.52,160.65z M61.7,157.02l-2.02-0.94c0.63-1.36,1.28-2.71,1.94-4.05l2,0.99
				C62.97,154.35,62.33,155.68,61.7,157.02z M427.78,152.66c-0.65-1.32-1.32-2.63-2.01-3.93l1.98-1.03
				c0.69,1.32,1.37,2.64,2.03,3.98L427.78,152.66z M423.68,144.84c-0.71-1.29-1.44-2.57-2.18-3.85l1.93-1.12
				c0.75,1.29,1.48,2.58,2.2,3.89L423.68,144.84z M419.25,137.19c-0.77-1.26-1.55-2.51-2.34-3.75l1.88-1.2
				c0.8,1.25,1.59,2.52,2.37,3.79L419.25,137.19z M414.48,129.75c-0.82-1.22-1.66-2.44-2.5-3.64l1.83-1.28
				c0.86,1.22,1.7,2.45,2.53,3.68L414.48,129.75z M409.4,122.51c-0.87-1.19-1.76-2.37-2.66-3.53l1.77-1.36
				c0.91,1.18,1.81,2.37,2.69,3.57L409.4,122.51z M404,115.5c-0.93-1.15-1.86-2.29-2.81-3.42l1.71-1.44
				c0.96,1.14,1.91,2.29,2.84,3.45L404,115.5z M398.3,108.73c-0.97-1.11-1.96-2.21-2.96-3.29l1.64-1.51
				c1.01,1.1,2.01,2.21,2.99,3.33L398.3,108.73z M392.31,102.21c-1.02-1.07-2.06-2.12-3.1-3.16l1.58-1.58
				c1.06,1.05,2.1,2.12,3.13,3.2L392.31,102.21z M102.19,99.22l-1.58-1.58c1.05-1.05,2.12-2.1,3.2-3.13l1.54,1.61
				C104.29,97.15,103.23,98.18,102.19,99.22z M386.05,95.96c-1.07-1.02-2.15-2.03-3.24-3.03l1.51-1.65c1.1,1.01,2.19,2.03,3.27,3.06
				L386.05,95.96z M108.58,93.1l-1.51-1.64c1.1-1.01,2.21-2,3.33-2.99l1.47,1.68C110.77,91.11,109.67,92.1,108.58,93.1z
				 M379.51,89.98c-1.11-0.97-2.23-1.93-3.36-2.88l1.43-1.71c1.14,0.96,2.28,1.93,3.4,2.91L379.51,89.98z M115.23,87.26l-1.44-1.71
				c1.14-0.96,2.29-1.91,3.46-2.84l1.4,1.74C117.5,85.37,116.36,86.31,115.23,87.26z M372.72,84.28c-1.15-0.92-2.31-1.84-3.49-2.74
				l1.36-1.77c1.19,0.91,2.36,1.83,3.52,2.77L372.72,84.28z M122.13,81.71l-1.36-1.77c1.18-0.91,2.37-1.8,3.57-2.69l1.32,1.8
				C124.47,79.93,123.3,80.81,122.13,81.71z M129.25,76.47l-1.28-1.83c1.22-0.86,2.45-1.7,3.69-2.53l1.24,1.85
				C131.67,74.79,130.46,75.62,129.25,76.47z M136.6,71.55l-1.2-1.88c1.25-0.8,2.52-1.59,3.79-2.37l1.16,1.91
				C139.09,69.98,137.84,70.76,136.6,71.55z M144.14,66.95l-1.12-1.93c1.29-0.75,2.58-1.48,3.89-2.2l1.08,1.95
				C146.7,65.49,145.42,66.21,144.14,66.95z M151.88,62.69l-1.03-1.98c1.32-0.69,2.64-1.36,3.98-2.02l0.99,2
				C154.5,61.34,153.19,62.01,151.88,62.69z M159.79,58.77l-0.95-2.02c1.35-0.63,2.7-1.25,4.06-1.85l0.9,2.04
				C162.47,57.54,161.13,58.15,159.79,58.77z M167.87,55.2l-0.86-2.06c1.37-0.57,2.75-1.13,4.14-1.67l0.81,2.08
				C170.59,54.09,169.22,54.64,167.87,55.2z M176.1,51.99l-0.77-2.1c1.4-0.51,2.81-1.01,4.22-1.49l0.72,2.11
				C178.88,50.99,177.48,51.48,176.1,51.99z"/>
		</g>
	</g>
	<g>
		<g>
			<g>
				<g>
					<path class="st0" d="M225.52,154.51v-38.09h-24.66c-8.38,0-15.2-6.82-15.2-15.2V33.2c0-8.38,6.82-15.2,15.2-15.2h151.42
						c8.38,0,15.2,6.82,15.2,15.2v68.03c0,8.38-6.82,15.2-15.2,15.2H263.6L225.52,154.51z M200.86,19.72
						c-7.43,0-13.48,6.05-13.48,13.48v68.03c0,7.43,6.05,13.48,13.48,13.48h26.38v35.66l35.66-35.66h89.38
						c7.43,0,13.48-6.05,13.48-13.48V33.2c0-7.43-6.05-13.48-13.48-13.48H200.86z"/>
				</g>
			</g>
			<g>
				<g>
					<path class="st0" d="M225.52,154.51v-38.09h-24.66c-8.38,0-15.2-6.82-15.2-15.2V33.2c0-8.38,6.82-15.2,15.2-15.2h151.42
						c8.38,0,15.2,6.82,15.2,15.2v68.03c0,8.38-6.82,15.2-15.2,15.2H263.6L225.52,154.51z M200.86,19.72
						c-7.43,0-13.48,6.05-13.48,13.48v68.03c0,7.43,6.05,13.48,13.48,13.48h26.38v35.66l35.66-35.66h89.38
						c7.43,0,13.48-6.05,13.48-13.48V33.2c0-7.43-6.05-13.48-13.48-13.48H200.86z"/>
				</g>
			</g>
		</g>
		<g>
			<g>
				<path class="st0" d="M322.77,46.19c0-2.29-1.85-4.14-4.14-4.14H234.5c-2.29,0-4.14,1.85-4.14,4.14c0,2.29,1.85,4.14,4.14,4.14
					h84.13C320.92,50.34,322.77,48.48,322.77,46.19z M230.36,60.21c0,2.29,1.85,4.14,4.14,4.14h84.13c2.29,0,4.14-1.85,4.14-4.14
					c0-2.29-1.85-4.14-4.14-4.14H234.5C232.22,56.06,230.36,57.92,230.36,60.21z M230.36,74.22L230.36,74.22
					c0,2.29,1.85,4.14,4.14,4.14h84.13c2.29,0,4.14-1.85,4.14-4.14l0,0c0-2.29-1.85-4.14-4.14-4.14H234.5
					C232.22,70.08,230.36,71.93,230.36,74.22z M230.36,88.23c0,2.29,1.85,4.14,4.14,4.14h45.47c2.29,0,4.14-1.85,4.14-4.14
					c0-2.29-1.85-4.14-4.14-4.14H234.5C232.22,84.09,230.36,85.94,230.36,88.23z"/>
			</g>
		</g>
	</g>
	<g>
		<g>
			<g>
				<g>
					<g>
						<path class="st0" d="M76.35,477.93v-55.51H39.63c-12.12,0-21.97-9.86-21.97-21.97V300.26c0-12.12,9.86-21.97,21.97-21.97
							H262.6c12.12,0,21.97,9.86,21.97,21.97v100.18c0,12.12-9.86,21.97-21.97,21.97H131.86L76.35,477.93z M39.63,280.01
							c-11.17,0-20.26,9.09-20.26,20.26v100.18c0,11.17,9.09,20.26,20.26,20.26h38.44v53.09l53.09-53.09H262.6
							c11.17,0,20.26-9.09,20.26-20.26V300.26c0-11.17-9.09-20.26-20.26-20.26H39.63z"/>
					</g>
					<g>
						<path class="st0" d="M75.49,480v-56.73H39.63c-12.59,0-22.83-10.24-22.83-22.83V300.26c0-12.59,10.24-22.83,22.83-22.83H262.6
							c12.59,0,22.83,10.24,22.83,22.83v100.18c0,12.59-10.24,22.83-22.83,22.83H132.22L75.49,480z M39.63,280.86
							c-10.7,0-19.4,8.7-19.4,19.4v100.18c0,10.7,8.7,19.4,19.4,19.4h39.29v51.87l51.87-51.87H262.6c10.7,0,19.4-8.7,19.4-19.4
							V300.26c0-10.7-8.7-19.4-19.4-19.4H39.63z M131.51,421.56h131.1c11.64,0,21.11-9.47,21.11-21.12V300.26v100.18
							c0,11.64-9.47,21.12-21.11,21.12H131.51z M18.51,400.44c0,11.64,9.47,21.12,21.12,21.12h37.58H39.63
							C27.99,421.56,18.51,412.08,18.51,400.44z"/>
					</g>
				</g>
			</g>
			<g>
				<g>
					<g>
						<path class="st0" d="M76.35,477.93v-55.51H39.63c-12.12,0-21.97-9.86-21.97-21.97V300.26c0-12.12,9.86-21.97,21.97-21.97
							H262.6c12.12,0,21.97,9.86,21.97,21.97v100.18c0,12.12-9.86,21.97-21.97,21.97H131.86L76.35,477.93z M39.63,280
							c-11.17,0-20.26,9.09-20.26,20.26v100.18c0,11.17,9.09,20.26,20.26,20.26h38.44v53.09l53.09-53.09H262.6
							c11.17,0,20.26-9.09,20.26-20.26V300.26c0-11.17-9.09-20.26-20.26-20.26H39.63z"/>
					</g>
					<g>
						<path class="st0" d="M75.49,480v-56.73H39.63c-12.59,0-22.83-10.24-22.83-22.83V300.26c0-12.59,10.24-22.83,22.83-22.83H262.6
							c12.59,0,22.83,10.24,22.83,22.83v100.18c0,12.59-10.24,22.83-22.83,22.83H132.22L75.49,480z M39.63,280.86
							c-10.7,0-19.4,8.7-19.4,19.4v100.18c0,10.7,8.7,19.4,19.4,19.4h39.29v51.87l51.87-51.87H262.6c10.7,0,19.4-8.7,19.4-19.4
							V300.26c0-10.7-8.7-19.4-19.4-19.4H39.63z M131.51,421.56h131.1c11.64,0,21.12-9.47,21.12-21.12V300.26v100.18
							c0,11.64-9.47,21.12-21.12,21.12H131.51z M18.52,400.44c0,11.64,9.47,21.12,21.11,21.12h37.58H39.63
							C27.99,421.56,18.52,412.08,18.52,400.44z"/>
					</g>
				</g>
			</g>
		</g>
		<g>
			<g>
				<path class="st0" d="M175.53,319.4c0-3.37-2.73-6.1-6.1-6.1H45.55c-3.37,0-6.1,2.73-6.1,6.1c0,3.37,2.73,6.1,6.1,6.1h123.88
					C172.8,325.5,175.53,322.77,175.53,319.4z M39.45,340.03c0,3.37,2.73,6.1,6.1,6.1h123.88c3.37,0,6.1-2.73,6.1-6.1
					s-2.73-6.1-6.1-6.1H45.55C42.18,333.94,39.45,336.67,39.45,340.03z M39.45,360.67L39.45,360.67c0,3.37,2.73,6.1,6.1,6.1h123.88
					c3.37,0,6.1-2.73,6.1-6.1l0,0c0-3.37-2.73-6.1-6.1-6.1H45.55C42.18,354.57,39.45,357.3,39.45,360.67z M96.38,381.3
					c0,3.37,2.73,6.1,6.1,6.1h66.95c3.37,0,6.1-2.73,6.1-6.1c0-3.37-2.73-6.1-6.1-6.1h-66.95C99.11,375.2,96.38,377.93,96.38,381.3z
					"/>
			</g>
		</g>
		<g>
			<g>
				<g>
					<path class="st0" d="M270.56,386.29L270.56,386.29c0,2.01-1.63,3.63-3.63,3.63H202.9c-2.01,0-3.63-1.63-3.63-3.63l0,0
						c0-2.01,1.63-3.63,3.63-3.63h64.03C268.93,382.65,270.56,384.28,270.56,386.29z"/>
				</g>
			</g>
			<g>
				<g>
					<path class="st0" d="M254.79,398.78L254.79,398.78c0,2.01-1.63,3.63-3.63,3.63h-32.49c-2.01,0-3.63-1.63-3.63-3.63l0,0
						c0-2.01,1.63-3.63,3.63-3.63h32.49C253.17,395.15,254.79,396.77,254.79,398.78z"/>
				</g>
			</g>
			<g>
				<g>
					<path class="st0" d="M218.27,350.57c4.48-2.19,8.14-5.69,10.54-9.99c-7.74-4.66-13.33-17.22-13.33-25.81
						c0-10.73,8.7-19.43,19.43-19.43c10.73,0,19.43,8.7,19.43,19.43c0,8.6-5.59,21.16-13.33,25.81c2.4,4.3,6.06,7.79,10.54,9.99
						c8.77,4.29,15.64,11.87,19,21.14h-71.3C202.62,362.44,209.49,354.86,218.27,350.57z"/>
				</g>
			</g>
		</g>
	</g>
	<g>
		<g>
			<g>
				<defs>
					<path id="SVGID_1_" d="M73.18,189.31l-10.79-39.4l-42.26,4.88l78.46-55.73L73.18,189.31z M63.65,148.03l9.55,34.86l22.41-79.63
						l-69.04,49.05L63.65,148.03z"/>
				</defs>
				<use xlink:href="#SVGID_1_"  style="overflow:visible;fill:#FFFFFF;"/>
				<clipPath id="SVGID_00000049935260368165357370000017419306460446845631_">
					<use xlink:href="#SVGID_1_"  style="overflow:visible;"/>
				</clipPath>
				
					<rect x="26.57" y="103.27" style="clip-path:url(#SVGID_00000049935260368165357370000017419306460446845631_);fill:#FFFFFF;" width="1.36" height="79.63"/>
				
					<rect x="27.92" y="103.27" style="clip-path:url(#SVGID_00000049935260368165357370000017419306460446845631_);fill:#FFFFFF;" width="1.95" height="79.63"/>
				
					<rect x="29.88" y="103.27" style="clip-path:url(#SVGID_00000049935260368165357370000017419306460446845631_);fill:#FFFFFF;" width="1.95" height="79.63"/>
				
					<rect x="31.83" y="103.27" style="clip-path:url(#SVGID_00000049935260368165357370000017419306460446845631_);fill:#FFFFFF;" width="1.95" height="79.63"/>
				
					<rect x="33.78" y="103.27" style="clip-path:url(#SVGID_00000049935260368165357370000017419306460446845631_);fill:#FFFFFF;" width="1.95" height="79.63"/>
				
					<rect x="35.73" y="103.27" style="clip-path:url(#SVGID_00000049935260368165357370000017419306460446845631_);fill:#FFFFFF;" width="1.95" height="79.63"/>
				
					<rect x="37.68" y="103.27" style="clip-path:url(#SVGID_00000049935260368165357370000017419306460446845631_);fill:#FFFFFF;" width="1.95" height="79.63"/>
				
					<rect x="39.63" y="103.27" style="clip-path:url(#SVGID_00000049935260368165357370000017419306460446845631_);fill:#FFFFFF;" width="1.95" height="79.63"/>
				
					<rect x="41.58" y="103.27" style="clip-path:url(#SVGID_00000049935260368165357370000017419306460446845631_);fill:#FFFFFF;" width="1.95" height="79.63"/>
				
					<rect x="43.53" y="103.27" style="clip-path:url(#SVGID_00000049935260368165357370000017419306460446845631_);fill:#FFFFFF;" width="1.95" height="79.63"/>
				
					<rect x="45.48" y="103.27" style="clip-path:url(#SVGID_00000049935260368165357370000017419306460446845631_);fill:#FFFFFF;" width="1.95" height="79.63"/>
				
					<rect x="47.43" y="103.27" style="clip-path:url(#SVGID_00000049935260368165357370000017419306460446845631_);fill:#FFFFFF;" width="1.95" height="79.63"/>
				
					<rect x="49.38" y="103.27" style="clip-path:url(#SVGID_00000049935260368165357370000017419306460446845631_);fill:#FFFFFF;" width="1.95" height="79.63"/>
				
					<rect x="51.34" y="103.27" style="clip-path:url(#SVGID_00000049935260368165357370000017419306460446845631_);fill:#FFFFFF;" width="1.95" height="79.63"/>
				
					<rect x="53.29" y="103.27" style="clip-path:url(#SVGID_00000049935260368165357370000017419306460446845631_);fill:#FFFFFF;" width="1.95" height="79.63"/>
				
					<rect x="55.24" y="103.27" style="clip-path:url(#SVGID_00000049935260368165357370000017419306460446845631_);fill:#FFFFFF;" width="1.95" height="79.63"/>
				
					<rect x="57.19" y="103.27" style="clip-path:url(#SVGID_00000049935260368165357370000017419306460446845631_);fill:#FFFFFF;" width="1.95" height="79.63"/>
				
					<rect x="59.14" y="103.27" style="clip-path:url(#SVGID_00000049935260368165357370000017419306460446845631_);fill:#FFFFFF;" width="1.95" height="79.63"/>
				
					<rect x="61.09" y="103.27" style="clip-path:url(#SVGID_00000049935260368165357370000017419306460446845631_);fill:#FFFFFF;" width="1.95" height="79.63"/>
				
					<rect x="63.04" y="103.27" style="clip-path:url(#SVGID_00000049935260368165357370000017419306460446845631_);fill:#FFFFFF;" width="1.95" height="79.63"/>
				
					<rect x="64.99" y="103.27" style="clip-path:url(#SVGID_00000049935260368165357370000017419306460446845631_);fill:#FFFFFF;" width="1.95" height="79.63"/>
				
					<rect x="66.94" y="103.27" style="clip-path:url(#SVGID_00000049935260368165357370000017419306460446845631_);fill:#FFFFFF;" width="1.95" height="79.63"/>
				
					<rect x="68.89" y="103.27" style="clip-path:url(#SVGID_00000049935260368165357370000017419306460446845631_);fill:#FFFFFF;" width="1.95" height="79.63"/>
				
					<rect x="70.84" y="103.27" style="clip-path:url(#SVGID_00000049935260368165357370000017419306460446845631_);fill:#FFFFFF;" width="1.95" height="79.63"/>
				
					<rect x="72.8" y="103.27" style="clip-path:url(#SVGID_00000049935260368165357370000017419306460446845631_);fill:#FFFFFF;" width="1.95" height="79.63"/>
				
					<rect x="74.75" y="103.27" style="clip-path:url(#SVGID_00000049935260368165357370000017419306460446845631_);fill:#FFFFFF;" width="1.95" height="79.63"/>
				
					<rect x="76.7" y="103.27" style="clip-path:url(#SVGID_00000049935260368165357370000017419306460446845631_);fill:#FFFFFF;" width="1.95" height="79.63"/>
				
					<rect x="78.65" y="103.27" style="clip-path:url(#SVGID_00000049935260368165357370000017419306460446845631_);fill:#FFFFFF;" width="1.95" height="79.63"/>
				
					<rect x="80.6" y="103.27" style="clip-path:url(#SVGID_00000049935260368165357370000017419306460446845631_);fill:#FFFFFF;" width="1.95" height="79.63"/>
				
					<rect x="82.55" y="103.27" style="clip-path:url(#SVGID_00000049935260368165357370000017419306460446845631_);fill:#FFFFFF;" width="1.95" height="79.63"/>
				
					<rect x="84.5" y="103.27" style="clip-path:url(#SVGID_00000049935260368165357370000017419306460446845631_);fill:#FFFFFF;" width="1.95" height="79.63"/>
				
					<rect x="86.45" y="103.27" style="clip-path:url(#SVGID_00000049935260368165357370000017419306460446845631_);fill:#FFFFFF;" width="1.95" height="79.63"/>
				
					<rect x="88.4" y="103.27" style="clip-path:url(#SVGID_00000049935260368165357370000017419306460446845631_);fill:#FFFFFF;" width="1.95" height="79.63"/>
				
					<rect x="90.35" y="103.27" style="clip-path:url(#SVGID_00000049935260368165357370000017419306460446845631_);fill:#FFFFFF;" width="1.95" height="79.63"/>
				
					<rect x="92.3" y="103.27" style="clip-path:url(#SVGID_00000049935260368165357370000017419306460446845631_);fill:#FFFFFF;" width="1.95" height="79.63"/>
				
					<rect x="94.26" y="103.27" style="clip-path:url(#SVGID_00000049935260368165357370000017419306460446845631_);fill:#FFFFFF;" width="1.36" height="79.63"/>
				
					<rect x="20.12" y="99.05" style="clip-path:url(#SVGID_00000049935260368165357370000017419306460446845631_);fill:#FFFFFF;" width="1.95" height="90.26"/>
				
					<rect x="22.07" y="99.05" style="clip-path:url(#SVGID_00000049935260368165357370000017419306460446845631_);fill:#FFFFFF;" width="1.95" height="90.26"/>
				
					<rect x="24.02" y="99.05" style="clip-path:url(#SVGID_00000049935260368165357370000017419306460446845631_);fill:#FFFFFF;" width="1.95" height="90.26"/>
				
					<rect x="25.97" y="99.05" style="clip-path:url(#SVGID_00000049935260368165357370000017419306460446845631_);fill:#FFFFFF;" width="1.95" height="90.26"/>
				
					<rect x="27.92" y="99.05" style="clip-path:url(#SVGID_00000049935260368165357370000017419306460446845631_);fill:#FFFFFF;" width="1.95" height="90.26"/>
				
					<rect x="29.88" y="99.05" style="clip-path:url(#SVGID_00000049935260368165357370000017419306460446845631_);fill:#FFFFFF;" width="1.95" height="90.26"/>
				
					<rect x="31.83" y="99.05" style="clip-path:url(#SVGID_00000049935260368165357370000017419306460446845631_);fill:#FFFFFF;" width="1.95" height="90.26"/>
				
					<rect x="33.78" y="99.05" style="clip-path:url(#SVGID_00000049935260368165357370000017419306460446845631_);fill:#FFFFFF;" width="1.95" height="90.26"/>
				
					<rect x="35.73" y="99.05" style="clip-path:url(#SVGID_00000049935260368165357370000017419306460446845631_);fill:#FFFFFF;" width="1.95" height="90.26"/>
				
					<rect x="37.68" y="99.05" style="clip-path:url(#SVGID_00000049935260368165357370000017419306460446845631_);fill:#FFFFFF;" width="1.95" height="90.26"/>
				
					<rect x="39.63" y="99.05" style="clip-path:url(#SVGID_00000049935260368165357370000017419306460446845631_);fill:#FFFFFF;" width="1.95" height="90.26"/>
				
					<rect x="41.58" y="99.05" style="clip-path:url(#SVGID_00000049935260368165357370000017419306460446845631_);fill:#FFFFFF;" width="1.95" height="90.26"/>
				
					<rect x="43.53" y="99.05" style="clip-path:url(#SVGID_00000049935260368165357370000017419306460446845631_);fill:#FFFFFF;" width="1.95" height="90.26"/>
				
					<rect x="45.48" y="99.05" style="clip-path:url(#SVGID_00000049935260368165357370000017419306460446845631_);fill:#FFFFFF;" width="1.95" height="90.26"/>
				
					<rect x="47.43" y="99.05" style="clip-path:url(#SVGID_00000049935260368165357370000017419306460446845631_);fill:#FFFFFF;" width="1.95" height="90.26"/>
				
					<rect x="49.38" y="99.05" style="clip-path:url(#SVGID_00000049935260368165357370000017419306460446845631_);fill:#FFFFFF;" width="1.95" height="90.26"/>
				
					<rect x="51.34" y="99.05" style="clip-path:url(#SVGID_00000049935260368165357370000017419306460446845631_);fill:#FFFFFF;" width="1.95" height="90.26"/>
				
					<rect x="53.29" y="99.05" style="clip-path:url(#SVGID_00000049935260368165357370000017419306460446845631_);fill:#FFFFFF;" width="1.95" height="90.26"/>
				
					<rect x="55.24" y="99.05" style="clip-path:url(#SVGID_00000049935260368165357370000017419306460446845631_);fill:#FFFFFF;" width="1.95" height="90.26"/>
				
					<rect x="57.19" y="99.05" style="clip-path:url(#SVGID_00000049935260368165357370000017419306460446845631_);fill:#FFFFFF;" width="1.95" height="90.26"/>
				
					<rect x="59.14" y="99.05" style="clip-path:url(#SVGID_00000049935260368165357370000017419306460446845631_);fill:#FFFFFF;" width="1.95" height="90.26"/>
				
					<rect x="61.09" y="99.05" style="clip-path:url(#SVGID_00000049935260368165357370000017419306460446845631_);fill:#FFFFFF;" width="1.95" height="90.26"/>
				
					<rect x="63.04" y="99.05" style="clip-path:url(#SVGID_00000049935260368165357370000017419306460446845631_);fill:#FFFFFF;" width="1.95" height="90.26"/>
				
					<rect x="64.99" y="99.05" style="clip-path:url(#SVGID_00000049935260368165357370000017419306460446845631_);fill:#FFFFFF;" width="1.95" height="90.26"/>
				
					<rect x="66.94" y="99.05" style="clip-path:url(#SVGID_00000049935260368165357370000017419306460446845631_);fill:#FFFFFF;" width="1.95" height="90.26"/>
				
					<rect x="68.89" y="99.05" style="clip-path:url(#SVGID_00000049935260368165357370000017419306460446845631_);fill:#FFFFFF;" width="1.95" height="90.26"/>
				
					<rect x="70.84" y="99.05" style="clip-path:url(#SVGID_00000049935260368165357370000017419306460446845631_);fill:#FFFFFF;" width="1.95" height="90.26"/>
				
					<rect x="72.8" y="99.05" style="clip-path:url(#SVGID_00000049935260368165357370000017419306460446845631_);fill:#FFFFFF;" width="1.95" height="90.26"/>
				
					<rect x="74.75" y="99.05" style="clip-path:url(#SVGID_00000049935260368165357370000017419306460446845631_);fill:#FFFFFF;" width="1.95" height="90.26"/>
				
					<rect x="76.7" y="99.05" style="clip-path:url(#SVGID_00000049935260368165357370000017419306460446845631_);fill:#FFFFFF;" width="1.95" height="90.26"/>
				
					<rect x="78.65" y="99.05" style="clip-path:url(#SVGID_00000049935260368165357370000017419306460446845631_);fill:#FFFFFF;" width="1.95" height="90.26"/>
				
					<rect x="80.6" y="99.05" style="clip-path:url(#SVGID_00000049935260368165357370000017419306460446845631_);fill:#FFFFFF;" width="1.95" height="90.26"/>
				
					<rect x="82.55" y="99.05" style="clip-path:url(#SVGID_00000049935260368165357370000017419306460446845631_);fill:#FFFFFF;" width="1.95" height="90.26"/>
				
					<rect x="84.5" y="99.05" style="clip-path:url(#SVGID_00000049935260368165357370000017419306460446845631_);fill:#FFFFFF;" width="1.95" height="90.26"/>
				
					<rect x="86.45" y="99.05" style="clip-path:url(#SVGID_00000049935260368165357370000017419306460446845631_);fill:#FFFFFF;" width="1.95" height="90.26"/>
				
					<rect x="88.4" y="99.05" style="clip-path:url(#SVGID_00000049935260368165357370000017419306460446845631_);fill:#FFFFFF;" width="1.95" height="90.26"/>
				
					<rect x="90.35" y="99.05" style="clip-path:url(#SVGID_00000049935260368165357370000017419306460446845631_);fill:#FFFFFF;" width="1.95" height="90.26"/>
				
					<rect x="92.3" y="99.05" style="clip-path:url(#SVGID_00000049935260368165357370000017419306460446845631_);fill:#FFFFFF;" width="1.95" height="90.26"/>
				
					<rect x="94.26" y="99.05" style="clip-path:url(#SVGID_00000049935260368165357370000017419306460446845631_);fill:#FFFFFF;" width="1.95" height="90.26"/>
				
					<rect x="96.21" y="99.05" style="clip-path:url(#SVGID_00000049935260368165357370000017419306460446845631_);fill:#FFFFFF;" width="1.95" height="90.26"/>
				
					<rect x="98.16" y="99.05" style="clip-path:url(#SVGID_00000049935260368165357370000017419306460446845631_);fill:#FFFFFF;" width="0.42" height="90.26"/>
			</g>
		</g>
	</g>
	<g>
		<g>
			<g>
				<g>
					<path class="st0" d="M430.4,341.36c-27.54,0-49.94-22.4-49.94-49.94c0-27.54,22.4-49.94,49.94-49.94
						c27.54,0,49.94,22.4,49.94,49.94C480.34,318.96,457.94,341.36,430.4,341.36z M430.4,243.2c-26.59,0-48.23,21.63-48.23,48.22
						s21.63,48.23,48.23,48.23c26.59,0,48.22-21.63,48.22-48.23S457,243.2,430.4,243.2z"/>
				</g>
			</g>
			<g>
				<g>
					<path class="st0" d="M430.4,342.22c-28.01,0-50.8-22.79-50.8-50.8c0-28.01,22.79-50.8,50.8-50.8c28.01,0,50.8,22.79,50.8,50.8
						C481.2,319.43,458.42,342.22,430.4,342.22z M381.32,291.42c0,27.06,22.02,49.08,49.08,49.08c27.06,0,49.08-22.02,49.08-49.08
						c0,27.06-22.02,49.08-49.08,49.08C403.34,340.5,381.32,318.48,381.32,291.42z M430.4,244.05c-26.12,0-47.37,21.25-47.37,47.37
						c0,26.12,21.25,47.37,47.37,47.37c26.12,0,47.37-21.25,47.37-47.37C477.77,265.3,456.52,244.05,430.4,244.05z"/>
				</g>
			</g>
		</g>
		<g>
			<g>
				<g>
					<g>
						<path class="st0" d="M457.74,314.9h-54.67c-3.85,0-6.99-3.13-6.99-6.99v-33c0-3.85,3.13-6.99,6.99-6.99h54.67
							c3.85,0,6.99,3.13,6.99,6.99v33C464.72,311.77,461.59,314.9,457.74,314.9z M403.07,269.65c-2.91,0-5.27,2.36-5.27,5.27v33
							c0,2.91,2.36,5.27,5.27,5.27h54.67c2.91,0,5.27-2.36,5.27-5.27v-33c0-2.91-2.36-5.27-5.27-5.27H403.07z M457.74,312.08h-54.67
							c-2.29,0-4.16-1.87-4.16-4.16v-33c0-2.29,1.87-4.16,4.16-4.16h54.67c2.29,0,4.16,1.87,4.16,4.16v33
							C461.89,310.21,460.03,312.08,457.74,312.08z M403.07,272.48c-1.35,0-2.44,1.09-2.44,2.44v33c0,1.35,1.09,2.44,2.44,2.44
							h54.67c1.35,0,2.44-1.09,2.44-2.44v-33c0-1.35-1.09-2.44-2.44-2.44H403.07z"/>
					</g>
				</g>
			</g>
			<g>
				<g>
					<g>
						<path class="st0" d="M430.4,293.69c-0.42,0-0.83-0.12-1.19-0.34L398,274.19c-1.07-0.66-1.4-2.06-0.75-3.12
							c0.65-1.07,2.06-1.4,3.12-0.75l29.99,18.41l29.38-19.11c0.51-0.33,1.12-0.44,1.71-0.32c0.6,0.13,1.1,0.48,1.44,0.99
							c0.33,0.51,0.44,1.11,0.32,1.71s-0.47,1.1-0.98,1.43l-30.58,19.9C431.27,293.56,430.84,293.69,430.4,293.69z M399.19,271.7
							c-0.19,0-0.37,0.09-0.47,0.26c-0.16,0.26-0.08,0.6,0.18,0.76l31.21,19.17c0.18,0.11,0.41,0.1,0.6-0.01l30.58-19.9
							c0.12-0.08,0.21-0.21,0.24-0.35c0.03-0.14,0-0.29-0.08-0.42c-0.08-0.13-0.21-0.21-0.35-0.24c-0.15-0.03-0.3,0-0.42,0.08
							l-30.29,19.71l-30.91-18.98C399.39,271.72,399.29,271.7,399.19,271.7z"/>
					</g>
				</g>
			</g>
		</g>
	</g>
</g>
</svg>
