<?xml version="1.0" encoding="utf-8"?>
<!-- Generator: Adobe Illustrator 27.3.1, SVG Export Plug-In . SVG Version: 6.00 Build 0)  -->
<svg version="1.1" id="Layer_1" xmlns="http://www.w3.org/2000/svg" xmlns:xlink="http://www.w3.org/1999/xlink" x="0px" y="0px"
	 viewBox="0 0 500 500" style="enable-background:new 0 0 500 500;" xml:space="preserve">
<style type="text/css">
	.st0{clip-path:url(#SVGID_00000078034591600552112860000000580457463288061367_);}
	.st1{fill:#F2F2F2;}
	.st2{fill:#FFFFFF;}
</style>
<g>
	<defs>
		<rect id="SVGID_1_" x="105.02" y="9.5" width="289.96" height="481"/>
	</defs>
	<clipPath id="SVGID_00000020376874193729980980000016727320865628065178_">
		<use xlink:href="#SVGID_1_"  style="overflow:visible;"/>
	</clipPath>
	<g style="clip-path:url(#SVGID_00000020376874193729980980000016727320865628065178_);">
		<g>
			<g>
				<path class="st1" d="M279.79,73.57c-15,0-27.2-12.2-27.2-27.2c0-15,12.2-27.2,27.2-27.2c15,0,27.2,12.2,27.2,27.2
					C307,61.37,294.79,73.57,279.79,73.57z M279.79,20.12c-14.47,0-26.25,11.78-26.25,26.25c0,14.47,11.78,26.25,26.25,26.25
					c14.47,0,26.25-11.78,26.25-26.25C306.04,31.9,294.27,20.12,279.79,20.12z"/>
			</g>
		</g>
		<g>
			<g>
				<path class="st1" d="M182.15,205.68c-15,0-27.2-12.2-27.2-27.2c0-15,12.2-27.2,27.2-27.2s27.2,12.2,27.2,27.2
					C209.36,193.47,197.15,205.68,182.15,205.68z M182.15,152.23c-14.47,0-26.25,11.78-26.25,26.25c0,14.47,11.78,26.25,26.25,26.25
					s26.25-11.78,26.25-26.25C208.4,164,196.63,152.23,182.15,152.23z"/>
			</g>
		</g>
		<g>
			<g>
				<path class="st1" d="M274.05,334.91c-15,0-27.2-12.2-27.2-27.2c0-15,12.2-27.2,27.2-27.2s27.2,12.2,27.2,27.2
					C301.25,322.7,289.05,334.91,274.05,334.91z M274.05,281.46c-14.47,0-26.25,11.78-26.25,26.25c0,14.47,11.78,26.25,26.25,26.25
					c14.47,0,26.25-11.78,26.25-26.25C300.3,293.23,288.52,281.46,274.05,281.46z"/>
			</g>
		</g>
		<g>
			<g>
				<path class="st1" d="M185.02,467.01c-15,0-27.2-12.2-27.2-27.2c0-15,12.2-27.2,27.2-27.2c15,0,27.2,12.2,27.2,27.2
					C212.23,454.81,200.03,467.01,185.02,467.01z M185.02,413.56c-14.47,0-26.25,11.78-26.25,26.25c0,14.47,11.78,26.25,26.25,26.25
					c14.47,0,26.25-11.78,26.25-26.25C211.27,425.33,199.5,413.56,185.02,413.56z"/>
			</g>
		</g>
		<g id="Lines_20_">
			<g>
				<g>
					<path class="st1" d="M181.85,2.52c-0.61-0.58-0.64-1.59-0.01-2.2c0.63-0.6,1.62-0.59,2.2,0.03c0.58,0.62,0.57,1.59-0.03,2.16
						C183.41,3.08,182.47,3.11,181.85,2.52z"/>
				</g>
				<g>
					<path class="st1" d="M177.78,7.14c-0.66-0.52-0.79-1.53-0.21-2.18c0.57-0.66,1.55-0.74,2.19-0.17
						c0.64,0.57,0.71,1.53,0.17,2.16C179.38,7.55,178.45,7.67,177.78,7.14z"/>
				</g>
				<g>
					<path class="st1" d="M175.91,9.58c0.69,0.5,0.85,1.46,0.37,2.13c-0.49,0.66-1.41,0.87-2.13,0.4c-0.71-0.46-0.93-1.45-0.41-2.15
						C174.25,9.25,175.22,9.08,175.91,9.58z"/>
				</g>
				<g>
					<path class="st1" d="M173.1,16.82c-0.43,0.71-1.33,0.99-2.08,0.6c-0.75-0.39-1.05-1.35-0.6-2.1c0.44-0.76,1.38-1.02,2.11-0.58
						C173.25,15.17,173.51,16.1,173.1,16.82z"/>
				</g>
				<g>
					<path class="st1" d="M169.64,20.17c0.77,0.37,1.11,1.27,0.77,2.03c-0.35,0.75-1.24,1.11-2.02,0.79
						c-0.79-0.33-1.17-1.24-0.8-2.04C167.95,20.15,168.87,19.8,169.64,20.17z"/>
				</g>
				<g>
					<path class="st1" d="M167.27,25.85c0.8,0.29,1.23,1.16,0.97,1.95c-0.27,0.78-1.14,1.22-1.95,0.97
						c-0.82-0.25-1.26-1.12-0.98-1.95C165.6,26,166.47,25.56,167.27,25.85z"/>
				</g>
				<g>
					<path class="st1" d="M168.56,69.15c0.25,0.79-0.13,1.65-0.93,1.96c-0.79,0.3-1.71-0.1-1.98-0.94
						c-0.28-0.83,0.15-1.71,0.96-1.97C167.42,67.94,168.3,68.36,168.56,69.15z"/>
				</g>
				<g>
					<path class="st1" d="M170.08,76.76c-0.77,0.38-1.7,0.05-2.05-0.75c-0.36-0.8-0.02-1.71,0.76-2.05c0.78-0.34,1.69,0,2.03,0.76
						C171.15,75.47,170.83,76.38,170.08,76.76z"/>
				</g>
				<g>
					<path class="st1" d="M173.6,80.05c0.41,0.72,0.16,1.66-0.55,2.1c-0.73,0.45-1.68,0.21-2.11-0.55c-0.44-0.76-0.18-1.7,0.56-2.11
						C172.25,79.08,173.19,79.33,173.6,80.05z"/>
				</g>
				<g>
					<path class="st1" d="M176.86,85.1c0.48,0.67,0.31,1.64-0.36,2.15c-0.69,0.52-1.64,0.36-2.15-0.36
						c-0.51-0.71-0.35-1.68,0.36-2.15C175.42,84.26,176.38,84.42,176.86,85.1z"/>
				</g>
				<g>
					<path class="st1" d="M180.43,91.99c-0.63,0.57-1.6,0.51-2.17-0.15c-0.57-0.66-0.5-1.63,0.16-2.17
						c0.66-0.54,1.63-0.47,2.17,0.15C181.13,90.45,181.06,91.42,180.43,91.99z"/>
				</g>
				<g>
					<path class="st1" d="M184.78,96.35c-0.57,0.63-1.55,0.65-2.18,0.05c-0.63-0.6-0.66-1.57-0.05-2.18
						c0.6-0.59,1.58-0.62,2.18-0.05C185.33,94.75,185.35,95.72,184.78,96.35z"/>
				</g>
				<g>
					<path class="st1" d="M187.11,98.37c0.54-0.64,1.51-0.76,2.16-0.25c0.65,0.51,0.76,1.48,0.25,2.16
						c-0.51,0.68-1.48,0.8-2.17,0.26C186.66,100,186.55,99.04,187.11,98.37z"/>
				</g>
				<g>
					<path class="st1" d="M192.02,102.08c0.48-0.69,1.43-0.89,2.13-0.45c0.7,0.45,0.9,1.4,0.46,2.12c-0.44,0.73-1.4,0.93-2.14,0.46
						C191.73,103.76,191.53,102.79,192.02,102.08z"/>
				</g>
				<g>
					<path class="st1" d="M197.26,105.32c0.41-0.74,1.33-1.01,2.07-0.64c0.74,0.38,1.03,1.3,0.66,2.07
						c-0.37,0.76-1.31,1.06-2.09,0.66C197.12,107.02,196.85,106.06,197.26,105.32z"/>
				</g>
				<g>
					<path class="st1" d="M202.79,108.04c0.35-0.78,1.23-1.12,2-0.83c0.77,0.3,1.15,1.2,0.85,1.99c-0.3,0.8-1.2,1.18-2.02,0.86
						C202.8,109.76,202.44,108.82,202.79,108.04z"/>
				</g>
				<g>
					<path class="st1" d="M208.54,110.23c0.27-0.82,1.11-1.22,1.91-1.01c0.8,0.23,1.26,1.08,1.04,1.9
						c-0.22,0.82-1.09,1.29-1.93,1.05C208.72,111.95,208.28,111.03,208.54,110.23z"/>
				</g>
				<g>
					<path class="st1" d="M214.48,111.87c0.19-0.84,1-1.34,1.81-1.18c0.81,0.15,1.36,0.94,1.21,1.78c-0.14,0.84-0.96,1.39-1.82,1.24
						C214.82,113.54,214.29,112.69,214.48,111.87z"/>
				</g>
				<g>
					<path class="st1" d="M220.54,112.94c0.11-0.84,0.87-1.44,1.69-1.34c0.82,0.08,1.44,0.81,1.38,1.66
						c-0.06,0.85-0.82,1.49-1.69,1.41C221.04,114.55,220.43,113.78,220.54,112.94z"/>
				</g>
				<g>
					<path class="st1" d="M226.68,113.43c0.03-0.85,0.73-1.52,1.56-1.5c0.82,0.02,1.55,0.73,1.52,1.58
						c-0.02,0.85-0.67,1.52-1.56,1.5C227.33,114.99,226.65,114.28,226.68,113.43z"/>
				</g>
				<g>
					<path class="st1" d="M232.84,113.62c0.05-0.85,0.79-1.49,1.66-1.42c0.87,0.06,1.5,0.81,1.41,1.67
						c-0.09,0.84-0.84,1.46-1.66,1.4C233.42,115.21,232.79,114.47,232.84,113.62z"/>
				</g>
				<g>
					<path class="st1" d="M238.96,114.26c0.13-0.84,0.93-1.4,1.79-1.25c0.86,0.15,1.42,0.96,1.24,1.79
						c-0.17,0.83-0.97,1.39-1.79,1.25C239.39,115.91,238.83,115.1,238.96,114.26z"/>
				</g>
				<g>
					<path class="st1" d="M244.99,115.5c0.21-0.84,1.06-1.32,1.9-1.08c0.84,0.24,1.32,1.09,1.07,1.91c-0.25,0.81-1.1,1.29-1.9,1.06
						C245.27,117.16,244.79,116.31,244.99,115.5z"/>
				</g>
				<g>
					<path class="st1" d="M250.88,117.3c0.28-0.81,1.19-1.23,1.99-0.9c0.81,0.32,1.21,1.22,0.88,2c-0.33,0.79-1.22,1.18-1.99,0.87
						C251.01,118.96,250.6,118.09,250.88,117.3z"/>
				</g>
				<g>
					<path class="st1" d="M256.58,119.64c0.36-0.77,1.3-1.12,2.07-0.71c0.78,0.4,1.08,1.33,0.68,2.08c-0.4,0.75-1.32,1.05-2.06,0.68
						C256.55,121.3,256.22,120.42,256.58,119.64z"/>
				</g>
				<g>
					<path class="st1" d="M262.02,122.52c0.42-0.72,1.41-1,2.13-0.52c0.74,0.47,0.95,1.43,0.48,2.14c-0.47,0.71-1.41,0.92-2.11,0.48
						C261.84,124.16,261.59,123.26,262.02,122.52z"/>
				</g>
				<g>
					<path class="st1" d="M267.18,125.89c0.49-0.68,1.49-0.86,2.17-0.32c0.69,0.54,0.81,1.52,0.28,2.18
						c-0.53,0.66-1.49,0.79-2.14,0.28C266.84,127.51,266.67,126.59,267.18,125.89z"/>
				</g>
				<g>
					<path class="st1" d="M271.99,129.72c0.55-0.64,1.56-0.71,2.2-0.12c0.63,0.6,0.67,1.59,0.07,2.2c-0.59,0.61-1.56,0.64-2.16,0.07
						C271.5,131.32,271.43,130.37,271.99,129.72z"/>
				</g>
				<g>
					<path class="st1" d="M278.49,136.28c-0.65,0.55-1.61,0.49-2.15-0.13c-0.56-0.61-0.53-1.56,0.09-2.15
						c0.61-0.59,1.61-0.56,2.2,0.09C279.2,134.74,279.14,135.73,278.49,136.28z"/>
				</g>
				<g>
					<path class="st1" d="M282.63,138.95c0.51,0.71,0.35,1.69-0.34,2.18c-0.7,0.49-1.65,0.34-2.13-0.33
						c-0.51-0.65-0.38-1.61,0.28-2.13C281.12,138.13,282.1,138.26,282.63,138.95z"/>
				</g>
				<g>
					<path class="st1" d="M283.53,145.77c-0.45-0.7-0.23-1.64,0.48-2.1c0.71-0.46,1.68-0.24,2.15,0.49
						c0.44,0.75,0.19,1.71-0.54,2.14C284.88,146.73,283.95,146.49,283.53,145.77z"/>
				</g>
				<g>
					<path class="st1" d="M286.42,151.05c-0.38-0.74-0.07-1.65,0.68-2.05c0.75-0.39,1.69-0.08,2.09,0.7
						c0.38,0.78,0.03,1.72-0.74,2.07C287.67,152.13,286.78,151.79,286.42,151.05z"/>
				</g>
				<g>
					<path class="st1" d="M290.75,157.48c-0.81,0.28-1.65-0.14-1.96-0.91c-0.3-0.77,0.09-1.65,0.88-1.97
						c0.79-0.32,1.69,0.08,2.01,0.89C292,156.3,291.55,157.21,290.75,157.48z"/>
				</g>
				<g>
					<path class="st1" d="M293.61,161.49c0.25,0.84-0.28,1.7-1.1,1.89c-0.83,0.2-1.63-0.3-1.87-1.09c-0.23-0.8,0.25-1.64,1.07-1.88
						C292.51,160.17,293.37,160.65,293.61,161.49z"/>
				</g>
				<g>
					<path class="st1" d="M293.29,190.89c0.83,0.15,1.4,0.97,1.22,1.83c-0.2,0.85-1.03,1.38-1.86,1.19
						c-0.83-0.2-1.35-1.01-1.16-1.82C291.66,191.28,292.44,190.74,293.29,190.89z"/>
				</g>
				<g>
					<path class="st1" d="M291.88,196.89c0.82,0.23,1.29,1.1,1.05,1.94c-0.27,0.83-1.16,1.28-1.96,1c-0.81-0.28-1.24-1.13-0.98-1.92
						C290.22,197.12,291.06,196.66,291.88,196.89z"/>
				</g>
				<g>
					<path class="st1" d="M288.73,205.56c-0.78-0.35-1.11-1.24-0.8-2c0.3-0.77,1.19-1.14,1.99-0.84c0.79,0.31,1.18,1.21,0.86,2.03
						C290.44,205.56,289.5,205.91,288.73,205.56z"/>
				</g>
				<g>
					<path class="st1" d="M285.96,211.06c-0.75-0.43-0.98-1.33-0.61-2.07c0.38-0.74,1.3-1.02,2.06-0.64
						c0.76,0.38,1.06,1.32,0.66,2.1C287.68,211.22,286.69,211.48,285.96,211.06z"/>
				</g>
				<g>
					<path class="st1" d="M282.69,216.28c-0.7-0.49-0.85-1.42-0.42-2.12c0.45-0.7,1.39-0.9,2.12-0.45c0.72,0.45,0.93,1.41,0.45,2.15
						C284.38,216.6,283.38,216.76,282.69,216.28z"/>
				</g>
				<g>
					<path class="st1" d="M278.94,221.16c-0.65-0.55-0.72-1.5-0.22-2.16c0.51-0.65,1.47-0.76,2.15-0.24s0.79,1.49,0.25,2.18
						C280.59,221.64,279.59,221.71,278.94,221.16z"/>
				</g>
				<g>
					<path class="st1" d="M274.76,225.68c-0.59-0.61-0.58-1.56-0.02-2.17c0.57-0.6,1.54-0.62,2.17-0.04
						c0.63,0.58,0.65,1.56,0.04,2.19C276.35,226.3,275.35,226.29,274.76,225.68z"/>
				</g>
				<g>
					<path class="st1" d="M270.17,229.79c-0.53-0.66-0.44-1.61,0.18-2.16c0.63-0.54,1.59-0.47,2.16,0.16
						c0.57,0.63,0.5,1.61-0.16,2.18C271.69,230.55,270.71,230.46,270.17,229.79z"/>
				</g>
				<g>
					<path class="st1" d="M265.22,233.45c-0.46-0.7-0.29-1.66,0.38-2.14c0.67-0.48,1.63-0.31,2.14,0.37
						c0.51,0.68,0.34,1.65-0.37,2.15C266.66,234.34,265.69,234.17,265.22,233.45z"/>
				</g>
				<g>
					<path class="st1" d="M259.94,236.63c-0.4-0.74-0.14-1.69,0.57-2.1c0.72-0.41,1.66-0.16,2.1,0.57c0.44,0.73,0.19,1.67-0.57,2.11
						C261.29,237.64,260.35,237.39,259.94,236.63z"/>
				</g>
				<g>
					<path class="st1" d="M254.39,239.31c-0.33-0.78,0.01-1.7,0.77-2.04c0.75-0.34,1.67,0,2.04,0.77c0.37,0.77,0.03,1.68-0.77,2.04
						C255.64,240.43,254.72,240.09,254.39,239.31z"/>
				</g>
				<g>
					<path class="st1" d="M248.61,241.43c-0.25-0.81,0.18-1.69,0.96-1.95c0.78-0.27,1.66,0.17,1.96,0.96
						c0.3,0.81-0.13,1.68-0.96,1.96C249.74,242.68,248.87,242.25,248.61,241.43z"/>
				</g>
				<g>
					<path class="st1" d="M242.66,243c-0.18-0.83,0.34-1.66,1.14-1.85c0.81-0.18,1.64,0.32,1.85,1.13c0.22,0.83-0.28,1.68-1.14,1.87
						C243.67,244.35,242.83,243.84,242.66,243z"/>
				</g>
				<g>
					<path class="st1" d="M236.58,244.01c-0.1-0.85,0.49-1.62,1.31-1.72c0.82-0.09,1.59,0.45,1.74,1.29
						c0.14,0.83-0.44,1.66-1.31,1.76C237.46,245.45,236.68,244.85,236.58,244.01z"/>
				</g>
				<g>
					<path class="st1" d="M230.44,244.43c-0.02-0.85,0.64-1.56,1.47-1.58c0.83-0.03,1.54,0.58,1.61,1.44
						c0.06,0.84-0.59,1.61-1.46,1.64C231.18,245.95,230.46,245.28,230.44,244.43z"/>
				</g>
				<g>
					<path class="st1" d="M224.29,244.65c-0.06-0.84,0.59-1.61,1.46-1.64c0.87-0.02,1.6,0.65,1.61,1.5
						c0.02,0.85-0.64,1.56-1.47,1.58C225.07,246.12,224.35,245.51,224.29,244.65z"/>
				</g>
				<g>
					<path class="st1" d="M218.17,245.37c-0.14-0.83,0.44-1.66,1.31-1.76c0.87-0.11,1.65,0.49,1.74,1.33
						c0.1,0.85-0.49,1.62-1.31,1.72C219.08,246.75,218.31,246.21,218.17,245.37z"/>
				</g>
				<g>
					<path class="st1" d="M212.15,246.65c-0.22-0.83,0.28-1.68,1.14-1.87c0.85-0.2,1.68,0.32,1.86,1.15
						c0.18,0.83-0.34,1.66-1.14,1.85C213.19,247.96,212.37,247.47,212.15,246.65z"/>
				</g>
				<g>
					<path class="st1" d="M206.27,248.5c-0.3-0.81,0.13-1.68,0.96-1.96c0.83-0.28,1.71,0.15,1.96,0.96
						c0.25,0.81-0.18,1.69-0.96,1.95C207.45,249.73,206.57,249.29,206.27,248.5z"/>
				</g>
				<g>
					<path class="st1" d="M200.6,250.91c-0.37-0.77-0.03-1.68,0.77-2.04c0.8-0.36,1.71-0.02,2.04,0.77c0.33,0.78-0.01,1.7-0.77,2.04
						C201.89,252.02,200.98,251.67,200.6,250.91z"/>
				</g>
				<g>
					<path class="st1" d="M195.19,253.84c-0.44-0.73-0.19-1.67,0.57-2.11c0.76-0.44,1.7-0.18,2.1,0.58c0.4,0.74,0.14,1.69-0.57,2.1
						C196.57,254.82,195.63,254.57,195.19,253.84z"/>
				</g>
				<g>
					<path class="st1" d="M190.07,257.27c-0.51-0.68-0.34-1.65,0.37-2.15c0.71-0.51,1.67-0.34,2.15,0.38
						c0.46,0.7,0.29,1.66-0.38,2.14C191.54,258.11,190.58,257.95,190.07,257.27z"/>
				</g>
				<g>
					<path class="st1" d="M185.29,261.15c-0.57-0.63-0.5-1.61,0.16-2.18c0.65-0.58,1.64-0.49,2.18,0.18
						c0.53,0.66,0.44,1.61-0.18,2.16C186.83,261.86,185.86,261.79,185.29,261.15z"/>
				</g>
				<g>
					<path class="st1" d="M180.9,265.47c-0.63-0.58-0.65-1.56-0.04-2.19c0.59-0.64,1.59-0.63,2.19-0.02
						c0.59,0.61,0.58,1.56,0.02,2.17C182.5,266.03,181.53,266.05,180.9,265.47z"/>
				</g>
				<g>
					<path class="st1" d="M176.93,270.18c-0.68-0.52-0.79-1.49-0.25-2.18c0.53-0.7,1.53-0.77,2.18-0.22
						c0.65,0.55,0.72,1.5,0.22,2.16C178.57,270.58,177.61,270.69,176.93,270.18z"/>
				</g>
				<g>
					<path class="st1" d="M172.96,273.09c0.46-0.74,1.46-0.91,2.15-0.42c0.7,0.49,0.85,1.42,0.42,2.12c-0.45,0.7-1.39,0.9-2.12,0.45
						C172.69,274.78,172.49,273.82,172.96,273.09z"/>
				</g>
				<g>
					<path class="st1" d="M171.84,277.88c0.75,0.43,0.98,1.33,0.61,2.07c-0.38,0.74-1.3,1.02-2.06,0.64
						c-0.76-0.38-1.06-1.32-0.66-2.1C170.13,277.72,171.11,277.46,171.84,277.88z"/>
				</g>
				<g>
					<path class="st1" d="M169.07,283.38c0.78,0.35,1.11,1.24,0.8,2c-0.3,0.77-1.19,1.14-1.99,0.84c-0.79-0.31-1.18-1.21-0.86-2.03
						C167.36,283.38,168.3,283.03,169.07,283.38z"/>
				</g>
				<g>
					<path class="st1" d="M166.83,289.11c0.81,0.28,1.24,1.13,0.98,1.92c-0.23,0.8-1.07,1.25-1.89,1.02
						c-0.82-0.23-1.29-1.1-1.05-1.94C165.14,289.29,166.03,288.84,166.83,289.11z"/>
				</g>
				<g>
					<path class="st1" d="M164.2,327.45c-0.25-0.84,0.28-1.7,1.1-1.89c0.83-0.2,1.63,0.3,1.87,1.09c0.23,0.8-0.25,1.64-1.07,1.88
						C165.29,328.77,164.44,328.29,164.2,327.45z"/>
				</g>
				<g>
					<path class="st1" d="M166.13,333.45c-0.33-0.81,0.13-1.72,0.93-1.99c0.81-0.28,1.65,0.14,1.96,0.91
						c0.3,0.77-0.09,1.65-0.88,1.97C167.35,334.66,166.45,334.26,166.13,333.45z"/>
				</g>
				<g>
					<path class="st1" d="M171.39,337.89c0.38,0.74,0.07,1.65-0.68,2.05c-0.75,0.39-1.69,0.08-2.09-0.7
						c-0.38-0.78-0.03-1.72,0.74-2.07C170.13,336.81,171.02,337.15,171.39,337.89z"/>
				</g>
				<g>
					<path class="st1" d="M173.79,345.27c-0.71,0.46-1.68,0.24-2.15-0.49c-0.44-0.75-0.19-1.71,0.54-2.14
						c0.74-0.42,1.67-0.18,2.09,0.53C174.72,343.86,174.5,344.8,173.79,345.27z"/>
				</g>
				<g>
					<path class="st1" d="M175.17,349.99c-0.51-0.71-0.35-1.69,0.34-2.18c0.7-0.49,1.65-0.34,2.13,0.33
						c0.51,0.65,0.38,1.61-0.28,2.13C176.69,350.81,175.7,350.69,175.17,349.99z"/>
				</g>
				<g>
					<path class="st1" d="M179.31,352.66c0.65-0.55,1.61-0.49,2.15,0.13c0.56,0.61,0.53,1.56-0.09,2.15
						c-0.61,0.59-1.61,0.56-2.2-0.09C178.6,354.2,178.66,353.22,179.31,352.66z"/>
				</g>
				<g>
					<path class="st1" d="M183.54,357.13c0.59-0.61,1.56-0.64,2.16-0.07c0.61,0.56,0.67,1.51,0.11,2.16
						c-0.55,0.64-1.56,0.71-2.2,0.12C182.98,358.73,182.95,357.75,183.54,357.13z"/>
				</g>
				<g>
					<path class="st1" d="M188.17,361.19c0.53-0.66,1.49-0.79,2.14-0.28c0.65,0.51,0.81,1.44,0.31,2.14
						c-0.49,0.68-1.49,0.86-2.17,0.32C187.77,362.83,187.64,361.86,188.17,361.19z"/>
				</g>
				<g>
					<path class="st1" d="M193.16,364.8c0.47-0.71,1.41-0.92,2.11-0.48c0.69,0.46,0.94,1.36,0.51,2.1c-0.42,0.72-1.41,1-2.13,0.52
						C192.91,366.47,192.7,365.51,193.16,364.8z"/>
				</g>
				<g>
					<path class="st1" d="M198.47,367.93c0.4-0.75,1.32-1.05,2.06-0.68c0.73,0.39,1.06,1.27,0.7,2.05c-0.36,0.77-1.3,1.12-2.07,0.71
						C198.38,369.61,198.07,368.68,198.47,367.93z"/>
				</g>
				<g>
					<path class="st1" d="M204.05,370.54c0.33-0.79,1.22-1.18,1.99-0.87c0.76,0.32,1.17,1.18,0.89,1.98
						c-0.28,0.81-1.19,1.23-1.99,0.9C204.11,372.22,203.72,371.33,204.05,370.54z"/>
				</g>
				<g>
					<path class="st1" d="M209.84,372.62c0.25-0.81,1.1-1.29,1.9-1.06c0.79,0.23,1.27,1.08,1.07,1.89c-0.21,0.84-1.06,1.32-1.9,1.08
						C210.07,374.28,209.59,373.43,209.84,372.62z"/>
				</g>
				<g>
					<path class="st1" d="M215.81,374.14c0.17-0.83,0.97-1.39,1.79-1.25c0.81,0.15,1.37,0.95,1.24,1.79
						c-0.13,0.84-0.93,1.4-1.79,1.25C216.2,375.77,215.64,374.97,215.81,374.14z"/>
				</g>
				<g>
					<path class="st1" d="M221.9,375.07c0.09-0.84,0.84-1.46,1.66-1.4c0.82,0.06,1.45,0.8,1.41,1.65c-0.05,0.85-0.79,1.49-1.66,1.42
						C222.43,376.68,221.8,375.93,221.9,375.07z"/>
				</g>
				<g>
					<path class="st1" d="M228.05,375.43c0.02-0.85,0.67-1.52,1.56-1.5c0.87,0.02,1.56,0.73,1.52,1.58
						c-0.03,0.85-0.73,1.52-1.56,1.5C228.75,376.99,228.02,376.28,228.05,375.43z"/>
				</g>
				<g>
					<path class="st1" d="M234.2,375.69c0.06-0.85,0.82-1.49,1.69-1.41c0.87,0.11,1.48,0.88,1.37,1.73
						c-0.11,0.84-0.87,1.44-1.69,1.34C234.75,377.27,234.14,376.54,234.2,375.69z"/>
				</g>
				<g>
					<path class="st1" d="M240.31,376.47c0.14-0.84,0.96-1.39,1.82-1.24c0.86,0.17,1.39,1.02,1.2,1.84c-0.19,0.84-1,1.34-1.81,1.18
						C240.71,378.1,240.16,377.31,240.31,376.47z"/>
				</g>
				<g>
					<path class="st1" d="M246.31,377.82c0.22-0.82,1.09-1.29,1.93-1.05c0.85,0.22,1.29,1.15,1.02,1.94
						c-0.27,0.82-1.11,1.22-1.91,1.01C246.55,379.49,246.09,378.64,246.31,377.82z"/>
				</g>
				<g>
					<path class="st1" d="M252.17,379.74c0.3-0.8,1.2-1.18,2.02-0.86c0.82,0.31,1.18,1.25,0.84,2.02c-0.35,0.78-1.23,1.12-2,0.83
						C252.25,381.43,251.87,380.53,252.17,379.74z"/>
				</g>
				<g>
					<path class="st1" d="M257.81,382.2c0.37-0.76,1.31-1.06,2.09-0.66c0.78,0.39,1.06,1.34,0.64,2.09
						c-0.41,0.74-1.33,1.01-2.07,0.64C257.73,383.89,257.44,382.96,257.81,382.2z"/>
				</g>
				<g>
					<path class="st1" d="M263.2,385.18c0.44-0.73,1.4-0.93,2.14-0.46c0.74,0.47,0.94,1.43,0.45,2.14
						c-0.48,0.69-1.43,0.89-2.13,0.45C262.96,386.86,262.75,385.91,263.2,385.18z"/>
				</g>
				<g>
					<path class="st1" d="M268.28,388.66c0.51-0.68,1.48-0.8,2.17-0.26c0.69,0.54,0.8,1.51,0.25,2.17
						c-0.54,0.64-1.51,0.76-2.16,0.25C267.89,390.3,267.77,389.34,268.28,388.66z"/>
				</g>
				<g>
					<path class="st1" d="M273.02,392.59c0.57-0.63,1.55-0.65,2.18-0.05c0.63,0.6,0.66,1.57,0.05,2.18
						c-0.6,0.59-1.58,0.62-2.18,0.05C272.47,394.19,272.45,393.22,273.02,392.59z"/>
				</g>
				<g>
					<path class="st1" d="M277.37,396.95c0.63-0.57,1.6-0.51,2.17,0.15c0.57,0.66,0.5,1.63-0.16,2.17
						c-0.66,0.54-1.63,0.47-2.17-0.15C276.68,398.5,276.75,397.52,277.37,396.95z"/>
				</g>
				<g>
					<path class="st1" d="M280.94,403.84c-0.48-0.67-0.31-1.64,0.36-2.15c0.69-0.52,1.64-0.36,2.15,0.36
						c0.51,0.71,0.35,1.68-0.36,2.15C282.38,404.68,281.42,404.52,280.94,403.84z"/>
				</g>
				<g>
					<path class="st1" d="M284.2,408.89c-0.41-0.72-0.16-1.66,0.55-2.1c0.73-0.45,1.68-0.21,2.11,0.55c0.44,0.76,0.18,1.7-0.56,2.11
						C285.56,409.86,284.62,409.61,284.2,408.89z"/>
				</g>
				<g>
					<path class="st1" d="M287.73,412.19c0.77-0.38,1.7-0.05,2.05,0.75c0.36,0.8,0.02,1.71-0.76,2.05c-0.78,0.34-1.69,0-2.03-0.76
						C286.65,413.47,286.97,412.56,287.73,412.19z"/>
				</g>
				<g>
					<path class="st1" d="M289.24,419.8c-0.25-0.79,0.13-1.65,0.93-1.96c0.79-0.3,1.71,0.1,1.98,0.94c0.28,0.83-0.15,1.71-0.96,1.97
						C290.38,421,289.51,420.58,289.24,419.8z"/>
				</g>
				<g>
					<path class="st1" d="M293.96,424.81c0.2,0.85-0.32,1.69-1.15,1.87c-0.83,0.18-1.66-0.32-1.84-1.13
						c-0.17-0.81,0.27-1.63,1.1-1.86C292.88,423.47,293.78,423.96,293.96,424.81z"/>
				</g>
				<g>
					<path class="st1" d="M292.35,457.2c-0.82-0.21-1.34-1.04-1.15-1.85c0.19-0.81,1.01-1.32,1.85-1.15c0.83,0.17,1.35,1,1.15,1.85
						C294,456.9,293.17,457.42,292.35,457.2z"/>
				</g>
				<g>
					<path class="st1" d="M290.53,463.09c-0.8-0.29-1.23-1.16-0.97-1.95c0.27-0.78,1.14-1.22,1.95-0.97
						c0.82,0.25,1.26,1.12,0.98,1.95C292.21,462.94,291.33,463.38,290.53,463.09z"/>
				</g>
				<g>
					<path class="st1" d="M288.17,468.77c-0.77-0.37-1.11-1.27-0.77-2.03c0.35-0.75,1.24-1.11,2.02-0.79
						c0.79,0.33,1.17,1.24,0.8,2.04C289.85,468.79,288.94,469.14,288.17,468.77z"/>
				</g>
				<g>
					<path class="st1" d="M284.7,472.12c0.43-0.71,1.33-0.99,2.08-0.6c0.75,0.39,1.05,1.35,0.6,2.1c-0.44,0.76-1.38,1.02-2.11,0.58
						C284.55,473.78,284.29,472.84,284.7,472.12z"/>
				</g>
				<g>
					<path class="st1" d="M281.9,479.36c-0.69-0.5-0.85-1.46-0.37-2.13c0.49-0.66,1.41-0.87,2.13-0.4c0.71,0.46,0.93,1.45,0.41,2.15
						C283.55,479.69,282.58,479.86,281.9,479.36z"/>
				</g>
				<g>
					<path class="st1" d="M278.05,484.16c-0.64-0.57-0.71-1.53-0.17-2.16c0.55-0.62,1.48-0.74,2.15-0.2
						c0.66,0.52,0.79,1.53,0.21,2.18C279.66,484.65,278.68,484.73,278.05,484.16z"/>
				</g>
				<g>
					<path class="st1" d="M273.76,488.59c-0.58-0.62-0.57-1.59,0.03-2.16c0.6-0.57,1.54-0.6,2.16,0c0.61,0.58,0.64,1.59,0.01,2.2
						C275.33,489.23,274.35,489.21,273.76,488.59z"/>
				</g>
				<g>
					<path class="st1" d="M271.47,490.65c0.55,0.64,0.48,1.64-0.2,2.19c-0.69,0.54-1.67,0.43-2.19-0.24
						c-0.52-0.67-0.42-1.63,0.24-2.14C269.97,489.93,270.91,490,271.47,490.65z"/>
				</g>
				<g>
					<path class="st1" d="M266.62,494.43c0.49,0.69,0.32,1.67-0.4,2.17c-0.74,0.47-1.7,0.27-2.16-0.45
						c-0.46-0.72-0.26-1.66,0.44-2.11C265.18,493.57,266.12,493.74,266.62,494.43z"/>
				</g>
				<g>
					<path class="st1" d="M261.43,497.75c0.43,0.74,0.16,1.69-0.6,2.12c-0.78,0.4-1.72,0.11-2.11-0.65
						c-0.39-0.76-0.1-1.68,0.63-2.06C260.08,496.75,261,497.01,261.43,497.75z"/>
				</g>
				<g>
					<path class="st1" d="M253.94,499.78c0.75-0.34,1.65,0.01,2.01,0.78c0.36,0.77,0,1.69-0.8,2.05c-0.81,0.34-1.72-0.05-2.03-0.84
						C252.81,500.98,253.18,500.1,253.94,499.78z"/>
				</g>
			</g>
			<g>
				<g>
					<g>
						<path class="st2" d="M270.85,439.4c0.87,0,1.57,0.69,1.57,1.54c0,0.85-0.7,1.54-1.57,1.54c-0.87,0-1.57-0.69-1.57-1.54
							C269.28,440.09,269.98,439.4,270.85,439.4z"/>
					</g>
					<g>
						<path class="st2" d="M264.57,439.4c0.87,0,1.57,0.69,1.57,1.54c0,0.85-0.7,1.54-1.57,1.54s-1.57-0.69-1.57-1.54
							C263,440.09,263.71,439.4,264.57,439.4z"/>
					</g>
					<g>
						<path class="st2" d="M258.29,439.4c0.87,0,1.57,0.69,1.57,1.54c0,0.85-0.7,1.54-1.57,1.54s-1.57-0.69-1.57-1.54
							C256.72,440.09,257.43,439.4,258.29,439.4z"/>
					</g>
					<g>
						<ellipse class="st2" cx="252.02" cy="440.94" rx="1.57" ry="1.54"/>
					</g>
					<g>
						<path class="st2" d="M245.74,439.4c0.87,0,1.57,0.69,1.57,1.54c0,0.85-0.7,1.54-1.57,1.54s-1.57-0.69-1.57-1.54
							C244.17,440.09,244.87,439.4,245.74,439.4z"/>
					</g>
					<g>
						<path class="st2" d="M239.46,439.4c0.87,0,1.57,0.69,1.57,1.54c0,0.85-0.7,1.54-1.57,1.54s-1.57-0.69-1.57-1.54
							C237.89,440.09,238.59,439.4,239.46,439.4z"/>
					</g>
					<g>
						<path class="st2" d="M233.18,439.4c0.87,0,1.57,0.69,1.57,1.54c0,0.85-0.7,1.54-1.57,1.54c-0.87,0-1.57-0.69-1.57-1.54
							C231.61,440.09,232.32,439.4,233.18,439.4z"/>
					</g>
					<g>
						<path class="st2" d="M226.9,439.4c0.87,0,1.57,0.69,1.57,1.54c0,0.85-0.7,1.54-1.57,1.54s-1.57-0.69-1.57-1.54
							C225.33,440.09,226.04,439.4,226.9,439.4z"/>
					</g>
					<g>
						<path class="st2" d="M220.63,439.4c0.87,0,1.57,0.69,1.57,1.54c0,0.85-0.7,1.54-1.57,1.54s-1.57-0.69-1.57-1.54
							C219.06,440.09,219.76,439.4,220.63,439.4z"/>
					</g>
					<g>
						<path class="st2" d="M214.35,439.4c0.87,0,1.57,0.69,1.57,1.54c0,0.85-0.7,1.54-1.57,1.54s-1.57-0.69-1.57-1.54
							C212.78,440.09,213.48,439.4,214.35,439.4z"/>
					</g>
				</g>
				<g>
					<g>
						<path class="st2" d="M243.46,308.42c0.87,0,1.57,0.69,1.57,1.54s-0.7,1.54-1.57,1.54s-1.57-0.69-1.57-1.54
							S242.59,308.42,243.46,308.42z"/>
					</g>
					<g>
						<path class="st2" d="M237.18,308.42c0.87,0,1.57,0.69,1.57,1.54s-0.7,1.54-1.57,1.54s-1.57-0.69-1.57-1.54
							S236.31,308.42,237.18,308.42z"/>
					</g>
					<g>
						<path class="st2" d="M230.9,308.42c0.87,0,1.57,0.69,1.57,1.54s-0.7,1.54-1.57,1.54s-1.57-0.69-1.57-1.54
							S230.03,308.42,230.9,308.42z"/>
					</g>
					<g>
						<path class="st2" d="M224.62,308.42c0.87,0,1.57,0.69,1.57,1.54s-0.7,1.54-1.57,1.54c-0.87,0-1.57-0.69-1.57-1.54
							S223.75,308.42,224.62,308.42z"/>
					</g>
					<g>
						<path class="st2" d="M218.34,308.42c0.87,0,1.57,0.69,1.57,1.54s-0.7,1.54-1.57,1.54s-1.57-0.69-1.57-1.54
							S217.48,308.42,218.34,308.42z"/>
					</g>
					<g>
						<path class="st2" d="M212.07,308.42c0.87,0,1.57,0.69,1.57,1.54s-0.7,1.54-1.57,1.54s-1.57-0.69-1.57-1.54
							S211.2,308.42,212.07,308.42z"/>
					</g>
					<g>
						<ellipse class="st2" cx="205.79" cy="309.96" rx="1.57" ry="1.54"/>
					</g>
					<g>
						<path class="st2" d="M199.51,308.42c0.87,0,1.57,0.69,1.57,1.54s-0.7,1.54-1.57,1.54s-1.57-0.69-1.57-1.54
							S198.64,308.42,199.51,308.42z"/>
					</g>
					<g>
						<path class="st2" d="M193.23,308.42c0.87,0,1.57,0.69,1.57,1.54s-0.7,1.54-1.57,1.54s-1.57-0.69-1.57-1.54
							S192.36,308.42,193.23,308.42z"/>
					</g>
					<g>
						<path class="st2" d="M186.95,308.42c0.87,0,1.57,0.69,1.57,1.54s-0.7,1.54-1.57,1.54c-0.87,0-1.57-0.69-1.57-1.54
							S186.09,308.42,186.95,308.42z"/>
					</g>
				</g>
				<g>
					<g>
						<path class="st2" d="M270.85,177.44c0.87,0,1.57,0.69,1.57,1.54c0,0.85-0.7,1.54-1.57,1.54c-0.87,0-1.57-0.69-1.57-1.54
							C269.28,178.13,269.98,177.44,270.85,177.44z"/>
					</g>
					<g>
						<path class="st2" d="M264.57,177.44c0.87,0,1.57,0.69,1.57,1.54c0,0.85-0.7,1.54-1.57,1.54s-1.57-0.69-1.57-1.54
							C263,178.13,263.71,177.44,264.57,177.44z"/>
					</g>
					<g>
						<path class="st2" d="M258.29,177.44c0.87,0,1.57,0.69,1.57,1.54c0,0.85-0.7,1.54-1.57,1.54s-1.57-0.69-1.57-1.54
							C256.72,178.13,257.43,177.44,258.29,177.44z"/>
					</g>
					<g>
						<ellipse class="st2" cx="252.02" cy="178.98" rx="1.57" ry="1.54"/>
					</g>
					<g>
						<path class="st2" d="M245.74,177.44c0.87,0,1.57,0.69,1.57,1.54c0,0.85-0.7,1.54-1.57,1.54s-1.57-0.69-1.57-1.54
							C244.17,178.13,244.87,177.44,245.74,177.44z"/>
					</g>
					<g>
						<path class="st2" d="M239.46,177.44c0.87,0,1.57,0.69,1.57,1.54c0,0.85-0.7,1.54-1.57,1.54s-1.57-0.69-1.57-1.54
							C237.89,178.13,238.59,177.44,239.46,177.44z"/>
					</g>
					<g>
						<path class="st2" d="M233.18,177.44c0.87,0,1.57,0.69,1.57,1.54c0,0.85-0.7,1.54-1.57,1.54c-0.87,0-1.57-0.69-1.57-1.54
							C231.61,178.13,232.32,177.44,233.18,177.44z"/>
					</g>
					<g>
						<path class="st2" d="M226.9,177.44c0.87,0,1.57,0.69,1.57,1.54c0,0.85-0.7,1.54-1.57,1.54s-1.57-0.69-1.57-1.54
							C225.33,178.13,226.04,177.44,226.9,177.44z"/>
					</g>
					<g>
						<path class="st2" d="M220.63,177.44c0.87,0,1.57,0.69,1.57,1.54c0,0.85-0.7,1.54-1.57,1.54s-1.57-0.69-1.57-1.54
							C219.06,178.13,219.76,177.44,220.63,177.44z"/>
					</g>
					<g>
						<path class="st2" d="M214.35,177.44c0.87,0,1.57,0.69,1.57,1.54c0,0.85-0.7,1.54-1.57,1.54s-1.57-0.69-1.57-1.54
							C212.78,178.13,213.48,177.44,214.35,177.44z"/>
					</g>
				</g>
				<g>
					<g>
						<path class="st2" d="M243.46,46.46c0.87,0,1.57,0.69,1.57,1.54c0,0.85-0.7,1.54-1.57,1.54s-1.57-0.69-1.57-1.54
							C241.89,47.15,242.59,46.46,243.46,46.46z"/>
					</g>
					<g>
						<path class="st2" d="M237.18,46.46c0.87,0,1.57,0.69,1.57,1.54c0,0.85-0.7,1.54-1.57,1.54s-1.57-0.69-1.57-1.54
							C235.61,47.15,236.31,46.46,237.18,46.46z"/>
					</g>
					<g>
						<path class="st2" d="M230.9,46.46c0.87,0,1.57,0.69,1.57,1.54c0,0.85-0.7,1.54-1.57,1.54s-1.57-0.69-1.57-1.54
							C229.33,47.15,230.03,46.46,230.9,46.46z"/>
					</g>
					<g>
						<path class="st2" d="M224.62,46.46c0.87,0,1.57,0.69,1.57,1.54c0,0.85-0.7,1.54-1.57,1.54c-0.87,0-1.57-0.69-1.57-1.54
							C223.05,47.15,223.75,46.46,224.62,46.46z"/>
					</g>
					<g>
						<path class="st2" d="M218.34,46.46c0.87,0,1.57,0.69,1.57,1.54c0,0.85-0.7,1.54-1.57,1.54s-1.57-0.69-1.57-1.54
							C216.77,47.15,217.48,46.46,218.34,46.46z"/>
					</g>
					<g>
						<path class="st2" d="M212.07,46.46c0.87,0,1.57,0.69,1.57,1.54c0,0.85-0.7,1.54-1.57,1.54s-1.57-0.69-1.57-1.54
							C210.5,47.15,211.2,46.46,212.07,46.46z"/>
					</g>
					<g>
						<ellipse class="st2" cx="205.79" cy="48" rx="1.57" ry="1.54"/>
					</g>
					<g>
						<path class="st2" d="M199.51,46.46c0.87,0,1.57,0.69,1.57,1.54c0,0.85-0.7,1.54-1.57,1.54s-1.57-0.69-1.57-1.54
							C197.94,47.15,198.64,46.46,199.51,46.46z"/>
					</g>
					<g>
						<path class="st2" d="M193.23,46.46c0.87,0,1.57,0.69,1.57,1.54c0,0.85-0.7,1.54-1.57,1.54s-1.57-0.69-1.57-1.54
							C191.66,47.15,192.36,46.46,193.23,46.46z"/>
					</g>
					<g>
						<path class="st2" d="M186.95,46.46c0.87,0,1.57,0.69,1.57,1.54c0,0.85-0.7,1.54-1.57,1.54c-0.87,0-1.57-0.69-1.57-1.54
							C185.38,47.15,186.09,46.46,186.95,46.46z"/>
					</g>
					<g>
						<path class="st2" d="M180.68,46.46c0.87,0,1.57,0.69,1.57,1.54c0,0.85-0.7,1.54-1.57,1.54s-1.57-0.69-1.57-1.54
							C179.11,47.15,179.81,46.46,180.68,46.46z"/>
					</g>
				</g>
			</g>
			<g>
				<g>
					<path class="st2" d="M163.41,31.82c-8.94,0-16.18,7.24-16.18,16.18c0,8.94,7.24,16.18,16.18,16.18
						c8.94,0,16.18-7.24,16.18-16.18C179.59,39.06,172.35,31.82,163.41,31.82z M163.41,58.78c-5.96,0-10.79-4.83-10.79-10.79
						s4.83-10.79,10.79-10.79c5.96,0,10.79,4.83,10.79,10.79S169.37,58.78,163.41,58.78z"/>
				</g>
				<g>
					<path class="st2" d="M292.64,161.05c-8.94,0-16.18,7.24-16.18,16.18c0,8.94,7.24,16.18,16.18,16.18
						c8.94,0,16.18-7.24,16.18-16.18C308.82,168.29,301.58,161.05,292.64,161.05z M292.64,188.01c-5.96,0-10.79-4.83-10.79-10.79
						c0-5.96,4.83-10.79,10.79-10.79c5.96,0,10.79,4.83,10.79,10.79C303.43,183.19,298.6,188.01,292.64,188.01z"/>
				</g>
				<g>
					<path class="st2" d="M166.28,290.28c-8.94,0-16.18,7.24-16.18,16.18c0,8.94,7.24,16.18,16.18,16.18
						c8.94,0,16.18-7.24,16.18-16.18C182.46,297.52,175.22,290.28,166.28,290.28z M166.28,317.24c-5.96,0-10.79-4.83-10.79-10.79
						s4.83-10.79,10.79-10.79c5.96,0,10.79,4.83,10.79,10.79S172.24,317.24,166.28,317.24z"/>
				</g>
				<g>
					<path class="st2" d="M292.64,422.38c-8.94,0-16.18,7.24-16.18,16.18c0,8.94,7.24,16.18,16.18,16.18
						c8.94,0,16.18-7.24,16.18-16.18C308.82,429.62,301.58,422.38,292.64,422.38z M292.64,449.35c-5.96,0-10.79-4.83-10.79-10.79
						s4.83-10.79,10.79-10.79c5.96,0,10.79,4.83,10.79,10.79S298.6,449.35,292.64,449.35z"/>
				</g>
			</g>
		</g>
		<g>
			<path class="st1" d="M265.06,59.92c0.48,0,0.92-0.19,1.26-0.52L276.71,49c0.23-0.23,0.23-0.61,0-0.84
				c-0.23-0.23-0.61-0.23-0.84,0l-10.39,10.39c-0.11,0.11-0.26,0.17-0.42,0.17l0,0c-0.16,0-0.31-0.06-0.42-0.17
				c-0.11-0.11-0.17-0.26-0.17-0.42c0-0.16,0.06-0.31,0.17-0.42l10.39-10.39c0.21-0.21,0.23-0.55,0.05-0.78
				c-2.9-3.69-2.58-8.98,0.74-12.31c1.75-1.76,4.09-2.72,6.57-2.72c2.48,0,4.82,0.97,6.57,2.72c1.76,1.75,2.72,4.09,2.72,6.57
				c0,2.48-0.97,4.82-2.72,6.57c-2.84,2.84-7.17,3.54-10.75,1.73c-0.29-0.15-0.65-0.03-0.79,0.26c-0.15,0.29-0.03,0.65,0.26,0.79
				c4.04,2.04,8.92,1.25,12.12-1.95c1.98-1.98,3.07-4.61,3.07-7.41c0-2.8-1.09-5.43-3.07-7.41c-1.98-1.98-4.61-3.07-7.41-3.07
				c-2.8,0-5.43,1.09-7.41,3.07c-3.62,3.62-4.08,9.31-1.15,13.45L263.8,56.88c-0.34,0.34-0.52,0.78-0.52,1.26
				c0,0.48,0.19,0.92,0.52,1.26C264.13,59.73,264.58,59.92,265.06,59.92L265.06,59.92z"/>
		</g>
		<g>
			<path class="st1" d="M183.58,193.77c-8.15,0-14.79-6.63-14.79-14.79c0-8.15,6.63-14.79,14.79-14.79
				c6.91,0,12.99,4.89,14.45,11.64c0.07,0.32-0.13,0.63-0.45,0.7c-0.33,0.07-0.64-0.13-0.7-0.45c-1.35-6.2-6.94-10.7-13.29-10.7
				c-7.5,0-13.6,6.1-13.6,13.6c0,7.5,6.1,13.6,13.6,13.6c7.3,0,13.28-5.78,13.59-13.01h-13.59c-0.33,0-0.59-0.27-0.59-0.59v-11.31
				c0-0.33,0.26-0.59,0.59-0.59c0.33,0,0.59,0.26,0.59,0.59v10.72h13.62c0.33,0,0.59,0.26,0.59,0.59c0,0.05,0,0.09-0.01,0.13
				C198.29,187.2,191.68,193.77,183.58,193.77z"/>
		</g>
		<g>
			<path class="st1" d="M285.14,321.21h-19.88c-2.68,0-4.85-2.18-4.85-4.85v-17.04c0-0.22,0.13-0.43,0.33-0.53
				c0.2-0.1,0.44-0.08,0.62,0.06l13.85,10.38l10.76-8.07c0.26-0.2,0.63-0.14,0.83,0.12c0.2,0.26,0.14,0.63-0.12,0.83l-11.11,8.33
				c-0.21,0.16-0.5,0.16-0.71,0l-13.26-9.94v15.86c0,2.02,1.65,3.67,3.67,3.67h19.88c2.02,0,3.67-1.65,3.67-3.67V299.9h-24.56
				c-0.33,0-0.59-0.26-0.59-0.59c0-0.33,0.26-0.59,0.59-0.59h25.15c0.33,0,0.59,0.26,0.59,0.59v17.04
				C289.99,319.03,287.82,321.21,285.14,321.21z"/>
		</g>
		<g>
			<path class="st1" d="M183.67,455.74c1.56,0,2.54-0.18,2.9-0.55c0.08-0.08,0.13-0.18,0.16-0.29c0.2-0.89,0.46-5.76,0.54-7.2
				c2.48-1.35,4.01-3.91,4.01-6.76c0-4.24-3.45-7.69-7.69-7.69c-4.24,0-7.69,3.45-7.69,7.69c0,4.24,3.45,7.69,7.69,7.69
				c0.36,0,0.72-0.02,1.07-0.07c0.32-0.04,0.55-0.34,0.5-0.67c-0.05-0.32-0.33-0.55-0.67-0.5c-0.3,0.04-0.6,0.06-0.91,0.06
				c-3.59,0-6.51-2.92-6.51-6.51c0-3.59,2.92-6.51,6.51-6.51c3.59,0,6.51,2.92,6.51,6.51c0,2.51-1.4,4.75-3.66,5.85
				c-0.2,0.1-0.32,0.29-0.33,0.5c-0.12,2.37-0.34,5.99-0.49,7.1c-0.69,0.22-3.16,0.22-3.91-0.02c-0.17-0.79-0.32-1.63-0.47-2.56
				c-0.04-0.23-0.21-0.42-0.43-0.48c-0.94-0.25-1.83-0.62-2.67-1.11c-0.19-0.11-0.43-0.11-0.62,0.01c-0.85,0.55-1.62,1.01-2.37,1.42
				c-0.45-0.29-1.88-1.73-2.26-2.31c0.4-0.74,0.86-1.51,1.4-2.33c0.12-0.19,0.13-0.43,0.01-0.62c-0.49-0.84-0.86-1.73-1.11-2.67
				c-0.06-0.23-0.25-0.4-0.48-0.43c-0.94-0.14-1.78-0.3-2.58-0.47c-0.22-0.68-0.22-3.17,0.02-3.92c0.8-0.17,1.66-0.33,2.6-0.47
				c0.23-0.03,0.42-0.2,0.48-0.42c0.24-0.84,0.58-1.66,1.02-2.42c0.12-0.22,0.1-0.49-0.06-0.68c-0.57-0.67-1.13-1.34-1.7-2
				l3.22-3.22c0.68,0.58,1.36,1.16,2.05,1.74c0.19,0.16,0.45,0.19,0.67,0.07c0.71-0.39,1.5-0.7,2.34-0.93
				c0.24-0.07,0.42-0.28,0.44-0.53l0.03-0.46c0.05-0.74,0.11-1.49,0.16-2.24h4.54l0.19,2.74c0.02,0.25,0.19,0.46,0.43,0.53
				c0.8,0.23,1.57,0.55,2.28,0.95c0.21,0.12,0.48,0.09,0.67-0.06c0.71-0.6,1.42-1.2,2.12-1.8l3.22,3.22c-0.6,0.7-1.2,1.41-1.79,2.12
				c-0.16,0.19-0.19,0.45-0.07,0.67c0.4,0.71,0.72,1.48,0.95,2.28c0.07,0.24,0.28,0.41,0.53,0.43l2.74,0.19v4.54l-2.7,0.19
				c-0.25,0.02-0.46,0.19-0.53,0.44c-0.24,0.88-0.58,1.72-1.03,2.5c-0.11,0.19-0.1,0.43,0.02,0.62c0.57,0.88,1.07,1.7,1.5,2.5
				c-0.29,0.45-1.72,1.88-2.31,2.26c-0.77-0.42-1.56-0.9-2.41-1.45c-0.19-0.12-0.43-0.13-0.63-0.01c-0.23,0.14-0.47,0.27-0.71,0.39
				c-0.29,0.15-0.41,0.5-0.26,0.8c0.15,0.29,0.5,0.41,0.79,0.26c0.16-0.08,0.31-0.16,0.47-0.25c0.85,0.55,1.65,1.02,2.44,1.44
				c0.09,0.05,0.18,0.07,0.28,0.07c0.84,0,3.57-2.74,3.57-3.57c0-0.1-0.02-0.19-0.07-0.28c-0.43-0.81-0.91-1.63-1.47-2.5
				c0.34-0.65,0.63-1.34,0.85-2.05l2.83-0.2c0.31-0.02,0.55-0.28,0.55-0.59v-5.65c0-0.31-0.24-0.57-0.55-0.59l-2.88-0.2
				c-0.2-0.61-0.45-1.2-0.73-1.77c0.63-0.75,1.26-1.49,1.89-2.22c0.2-0.23,0.19-0.59-0.03-0.8l-3.99-3.99
				c-0.22-0.22-0.57-0.23-0.8-0.03c-0.73,0.63-1.47,1.26-2.22,1.89c-0.56-0.29-1.16-0.54-1.77-0.73l-0.2-2.88
				c-0.02-0.31-0.28-0.55-0.59-0.55h-5.65c-0.31,0-0.57,0.24-0.59,0.55c-0.06,0.93-0.13,1.86-0.2,2.78l0,0.05
				c-0.65,0.2-1.26,0.44-1.83,0.73c-0.72-0.61-1.44-1.22-2.15-1.83c-0.23-0.2-0.58-0.19-0.8,0.03l-3.99,3.99
				c-0.22,0.22-0.23,0.57-0.03,0.8c0.59,0.69,1.19,1.39,1.78,2.1c-0.33,0.63-0.61,1.28-0.82,1.95c-0.93,0.15-1.78,0.31-2.58,0.49
				c-0.11,0.02-0.21,0.08-0.29,0.16c-0.36,0.36-0.55,1.34-0.55,2.9c0,1.56,0.18,2.54,0.55,2.9c0.08,0.08,0.18,0.14,0.29,0.16
				c0.79,0.17,1.61,0.33,2.53,0.48c0.24,0.79,0.56,1.55,0.95,2.27c-0.53,0.83-0.99,1.61-1.38,2.36c-0.05,0.08-0.07,0.18-0.07,0.28
				c0,0.83,2.74,3.57,3.57,3.57c0.1,0,0.19-0.02,0.28-0.07c0.75-0.4,1.53-0.85,2.36-1.39c0.72,0.39,1.48,0.71,2.27,0.95
				c0.15,0.92,0.3,1.75,0.48,2.53c0.02,0.11,0.08,0.21,0.16,0.29C181.13,455.55,182.1,455.74,183.67,455.74z"/>
		</g>
	</g>
</g>
</svg>
