<?xml version="1.0" encoding="utf-8"?>
<!-- Generator: Adobe Illustrator 27.3.1, SVG Export Plug-In . SVG Version: 6.00 Build 0)  -->
<svg version="1.1" id="Layer_1" xmlns="http://www.w3.org/2000/svg" xmlns:xlink="http://www.w3.org/1999/xlink" x="0px" y="0px"
	 viewBox="0 0 500 500" style="enable-background:new 0 0 500 500;" xml:space="preserve">
<style type="text/css">
	.st0{fill-rule:evenodd;clip-rule:evenodd;fill:url(#SVGID_1_);}
	.st1{fill-rule:evenodd;clip-rule:evenodd;fill:#FFFFFF;}
</style>
<g>
	<linearGradient id="SVGID_1_" gradientUnits="userSpaceOnUse" x1="250" y1="17" x2="250" y2="483">
		<stop  offset="0" style="stop-color:#00C13E"/>
		<stop  offset="1" style="stop-color:#008530"/>
	</linearGradient>
	<path class="st0" d="M406.01,483H93.99C51.64,483,17,448.36,17,406.01V93.99C17,51.64,51.64,17,93.99,17h312.03
		C448.36,17,483,51.64,483,93.99v312.03C483,448.36,448.36,483,406.01,483z"/>
	<g>
		<path class="st1" d="M408.87,245.91c0,85.47-69.83,154.77-155.98,154.77c-27.36,0-53.06-6.99-75.4-19.26l-86.36,27.45l28.15-83.04
			c-14.21-23.33-22.37-50.68-22.37-79.92c0-85.49,69.83-154.79,155.99-154.79C339.04,91.13,408.87,160.43,408.87,245.91
			L408.87,245.91z M252.89,115.78c-72.33,0-131.15,58.37-131.15,130.13c0,28.46,9.27,54.84,24.98,76.3l-16.38,48.32l50.39-16.01
			c20.7,13.58,45.51,21.51,72.16,21.51c72.3,0,131.14-58.37,131.14-130.12C384.03,174.15,325.2,115.78,252.89,115.78L252.89,115.78z
			 M331.66,281.56c-0.97-1.58-3.52-2.53-7.33-4.43c-3.83-1.89-22.63-11.08-26.13-12.34c-3.5-1.26-6.07-1.9-8.6,1.89
			c-2.55,3.8-9.88,12.34-12.12,14.88c-2.22,2.54-4.45,2.85-8.27,0.95c-3.83-1.89-16.16-5.91-30.76-18.82
			c-11.36-10.07-19.03-22.48-21.28-26.28c-2.22-3.79-0.22-5.84,1.67-7.74c1.73-1.71,3.83-4.43,5.74-6.64
			c1.92-2.22,2.55-3.81,3.83-6.35c1.28-2.53,0.64-4.74-0.33-6.64c-0.95-1.89-8.6-20.57-11.79-28.17c-3.17-7.58-6.36-7.3-8.6-7.3
			c-2.22,0-6.35,0.66-6.35,0.66s-7.66,0.95-11.16,4.74c-3.5,3.79-13.38,12.98-13.38,31.63c0,18.67,13.69,36.72,15.6,39.23
			c1.92,2.54,26.44,42.1,65.32,57.29c38.88,15.19,38.88,10.12,45.89,9.48c7-0.62,22.62-9.17,25.81-18.03
			C332.61,290.73,332.61,283.13,331.66,281.56L331.66,281.56z M331.66,281.56"/>
	</g>
</g>
</svg>
